<svg width="235" height="138" viewBox="0 0 235 138" fill="none" xmlns="http://www.w3.org/2000/svg">
<g clip-path="url(#clip0_159_569)">
<path d="M152.251 64.5874C149.21 64.5874 146.745 67.0529 146.745 70.0945C146.745 73.1361 149.21 75.6016 152.251 75.6016C155.292 75.6016 157.757 73.1361 157.757 70.0945C157.757 67.0529 155.292 64.5874 152.251 64.5874Z" fill="#0B0F15"/>
<path d="M167.11 64.5874C164.069 64.5874 161.604 67.0529 161.604 70.0945C161.604 73.1361 164.069 75.6016 167.11 75.6016C170.151 75.6016 172.616 73.1361 172.616 70.0945C172.616 67.0529 170.151 64.5874 167.11 64.5874Z" fill="#0B0F15"/>
<path d="M180.587 64.5874C177.546 64.5874 175.081 67.0529 175.081 70.0945C175.081 73.1361 177.546 75.6016 180.587 75.6016C183.628 75.6016 186.093 73.1361 186.093 70.0945C186.093 67.0529 183.628 64.5874 180.587 64.5874Z" fill="#0B0F15"/>
<path d="M174.85 2.62693C133.891 -1.88935 99.2432 30.0472 99.2432 70.0946C99.2432 70.2098 99.2432 70.302 99.2432 70.4172C98.0452 85.3486 86.5268 97.3306 71.8061 99.1739C68.8574 101.709 65.2406 103.552 61.1631 104.335C57.9149 104.958 54.6897 104.842 51.6718 104.151C54.1368 102.446 56.1871 100.257 57.7997 97.7914C44.3922 93.2751 35.0161 80.0258 36.4905 64.7719C37.9418 49.6562 50.6352 37.3977 65.7705 36.4299C78.3486 35.6004 89.4525 42.1905 95.2347 52.2369C98.4829 39.3102 105.164 27.6969 114.24 18.4109C99.9343 5.00028 79.9152 -2.3502 58.1683 0.668338C27.9207 4.90811 3.82409 29.7246 0.437653 60.0943C-4.12366 101.086 27.8286 135.788 67.8899 135.788C86.9645 135.788 104.15 127.862 116.475 115.188C128.915 129.152 146.976 138 167.133 138C207.171 138 239.101 103.345 234.585 62.3755C231.153 31.2684 205.95 6.08327 174.873 2.64997L174.85 2.62693ZM177.2 99.9804C178.813 102.446 180.863 104.635 183.328 106.34C180.287 107.054 177.085 107.147 173.837 106.524C169.736 105.741 166.142 103.898 163.194 101.363C147.805 99.4504 135.849 86.4316 135.619 70.5785C135.619 70.279 135.688 69.9794 135.688 69.6568H135.619C135.849 52.2138 150.201 38.2042 167.755 38.5267C183.512 38.8263 197.081 51.3613 198.555 67.053C199.961 82.2379 190.608 95.4411 177.223 99.9574L177.2 99.9804Z" fill="#0B0F15"/>
<path d="M47.4792 67.8826C47.4792 70.9242 49.9441 73.3897 52.985 73.3897C56.0259 73.3897 58.4908 70.9242 58.4908 67.8826C58.4908 64.841 56.0259 62.3755 52.985 62.3755C49.9441 62.3755 47.4792 64.841 47.4792 67.8826Z" fill="#0B0F15"/>
<path d="M62.361 67.8826C62.361 70.9242 64.826 73.3897 67.8669 73.3897C70.9077 73.3897 73.3727 70.9242 73.3727 67.8826C73.3727 64.841 70.9077 62.3755 67.8669 62.3755C64.826 62.3755 62.361 64.841 62.361 67.8826Z" fill="#0B0F15"/>
<path d="M75.8146 67.8826C75.8146 70.9242 78.2796 73.3897 81.3205 73.3897C84.3613 73.3897 86.8263 70.9242 86.8263 67.8826C86.8263 64.841 84.3613 62.3755 81.3205 62.3755C78.2796 62.3755 75.8146 64.841 75.8146 67.8826Z" fill="#0B0F15"/>
</g>
<defs>
<clipPath id="clip0_159_569">
<rect width="235" height="138" fill="white"/>
</clipPath>
</defs>
</svg>
