<svg width="102" height="60" viewBox="0 0 102 60" fill="none" xmlns="http://www.w3.org/2000/svg">
<g clip-path="url(#clip0_159_567)">
<path d="M66.09 28.03C64.77 28.03 63.7 29.1 63.7 30.42C63.7 31.74 64.77 32.81 66.09 32.81C67.41 32.81 68.48 31.74 68.48 30.42C68.48 29.1 67.41 28.03 66.09 28.03Z" fill="#FCFBFA"/>
<path d="M72.54 28.03C71.22 28.03 70.15 29.1 70.15 30.42C70.15 31.74 71.22 32.81 72.54 32.81C73.86 32.81 74.93 31.74 74.93 30.42C74.93 29.1 73.86 28.03 72.54 28.03Z" fill="#FCFBFA"/>
<path d="M78.39 28.03C77.07 28.03 76 29.1 76 30.42C76 31.74 77.07 32.81 78.39 32.81C79.71 32.81 80.78 31.74 80.78 30.42C80.78 29.1 79.71 28.03 78.39 28.03Z" fill="#FCFBFA"/>
<path d="M75.9 1.14011C58.12 -0.819891 43.08 13.0401 43.08 30.4201C43.08 30.4701 43.08 30.5101 43.08 30.5601C42.56 37.0401 37.56 42.2401 31.17 43.0401C29.89 44.1401 28.32 44.9401 26.55 45.2801C25.14 45.5501 23.74 45.5001 22.43 45.2001C23.5 44.4601 24.39 43.5101 25.09 42.4401C19.27 40.4801 15.2 34.7301 15.84 28.1101C16.47 21.5501 21.98 16.2301 28.55 15.8101C34.01 15.4501 38.83 18.3101 41.34 22.6701C42.75 17.0601 45.65 12.0201 49.59 7.99011C43.38 2.17011 34.69 -1.01989 25.25 0.290109C12.12 2.13011 1.66 12.9001 0.190001 26.0801C-1.79 43.8701 12.08 58.9301 29.47 58.9301C37.75 58.9301 45.21 55.4901 50.56 49.9901C55.96 56.0501 63.8 59.8901 72.55 59.8901C89.93 59.8901 103.79 44.8501 101.83 27.0701C100.34 13.5701 89.4 2.64011 75.91 1.15011L75.9 1.14011ZM76.92 43.3901C77.62 44.4601 78.51 45.4101 79.58 46.1501C78.26 46.4601 76.87 46.5001 75.46 46.2301C73.68 45.8901 72.12 45.0901 70.84 43.9901C64.16 43.1601 58.97 37.5101 58.87 30.6301C58.87 30.5001 58.9 30.3701 58.9 30.2301H58.87C58.97 22.6601 65.2 16.5801 72.82 16.7201C79.66 16.8501 85.55 22.2901 86.19 29.1001C86.8 35.6901 82.74 41.4201 76.93 43.3801L76.92 43.3901Z" fill="#FCFBFA"/>
<path d="M20.61 29.4601C20.61 30.7801 21.68 31.8501 23 31.8501C24.32 31.8501 25.39 30.7801 25.39 29.4601C25.39 28.1401 24.32 27.0701 23 27.0701C21.68 27.0701 20.61 28.1401 20.61 29.4601Z" fill="#FCFBFA"/>
<path d="M27.07 29.4601C27.07 30.7801 28.14 31.8501 29.46 31.8501C30.78 31.8501 31.85 30.7801 31.85 29.4601C31.85 28.1401 30.78 27.0701 29.46 27.0701C28.14 27.0701 27.07 28.1401 27.07 29.4601Z" fill="#FCFBFA"/>
<path d="M32.91 29.4601C32.91 30.7801 33.98 31.8501 35.3 31.8501C36.62 31.8501 37.69 30.7801 37.69 29.4601C37.69 28.1401 36.62 27.0701 35.3 27.0701C33.98 27.0701 32.91 28.1401 32.91 29.4601Z" fill="#FCFBFA"/>
</g>
<defs>
<clipPath id="clip0_159_567">
<rect width="102.01" height="59.89" fill="white"/>
</clipPath>
</defs>
</svg>
