<svg width="21" height="19" viewBox="0 0 21 19" fill="none" xmlns="http://www.w3.org/2000/svg">
<path d="M3.67553 18.479C3.53195 18.6038 3.35573 18.6851 3.16757 18.7133C2.9794 18.7415 2.78709 18.7155 2.61322 18.6382C2.43935 18.5609 2.29113 18.4356 2.18597 18.2771C2.08081 18.1185 2.02307 17.9332 2.01953 17.743V15.5C1.4891 15.5 0.98039 15.2893 0.605318 14.9142C0.230245 14.5391 0.0195313 14.0304 0.0195312 13.5V6.5C0.0195313 5.96957 0.230245 5.46086 0.605318 5.08579C0.98039 4.71071 1.4891 4.5 2.01953 4.5H13.0195C13.55 4.5 14.0587 4.71071 14.4337 5.08579C14.8088 5.46086 15.0195 5.96957 15.0195 6.5V13.5C15.0195 14.0304 14.8088 14.5391 14.4337 14.9142C14.0587 15.2893 13.55 15.5 13.0195 15.5H8.02253L3.67553 18.479ZM4.51953 15.386C4.61065 15.3855 4.70014 15.3617 4.77953 15.317L7.13453 13.679C7.30213 13.5624 7.50139 13.5 7.70553 13.5H12.0195C12.2847 13.5 12.5391 13.3946 12.7266 13.2071C12.9142 13.0196 13.0195 12.7652 13.0195 12.5V7.5C13.0195 7.23478 12.9142 6.98043 12.7266 6.79289C12.5391 6.60536 12.2847 6.5 12.0195 6.5H3.01953C2.75431 6.5 2.49996 6.60536 2.31242 6.79289C2.12489 6.98043 2.01953 7.23478 2.01953 7.5V12.5C2.01953 13.04 2.44853 13.482 3.01953 13.5C3.42953 13.516 3.72653 13.583 3.86353 13.726C3.99153 13.86 3.99853 14.086 4.01953 14.516C4.02253 14.579 4.02253 14.693 4.01953 14.886C4.01953 15.0186 4.07221 15.1458 4.16598 15.2396C4.25975 15.3333 4.38692 15.386 4.51953 15.386ZM16.0195 10.516C16.0163 10.6393 16.0163 10.7627 16.0195 10.886V10.516C16.0395 10.086 16.0475 9.86 16.1755 9.726C16.3125 9.583 16.6095 9.516 17.0195 9.5C17.5905 9.482 18.0195 9.04 18.0195 8.5V3.5C18.0195 3.23478 17.9142 2.98043 17.7266 2.79289C17.5391 2.60536 17.2847 2.5 17.0195 2.5H8.01953C7.75431 2.5 7.49996 2.60536 7.31242 2.79289C7.12489 2.98043 7.01953 3.23478 7.01953 3.5H5.01953V2.5C5.01953 1.96957 5.23024 1.46086 5.60532 1.08579C5.98039 0.710714 6.4891 0.5 7.01953 0.5L18.0195 0.5C18.55 0.5 19.0587 0.710714 19.4337 1.08579C19.8088 1.46086 20.0195 1.96957 20.0195 2.5V9.5C20.0195 10.0304 19.8088 10.5391 19.4337 10.9142C19.0587 11.2893 18.55 11.5 18.0195 11.5V13.743C18.016 13.9332 17.9583 14.1185 17.8531 14.2771C17.7479 14.4356 17.5997 14.5609 17.4258 14.6382C17.252 14.7155 17.0597 14.7415 16.8715 14.7133C16.6833 14.6851 16.5071 14.6038 16.3635 14.479L16.0195 14.243V10.517V10.516Z"  fill="#4d4a49"/>
</svg>
