<svg width="25" height="24" viewBox="0 0 25 24" fill="none" xmlns="http://www.w3.org/2000/svg">
<path d="M6.01953 2H18.0195C19.0804 2 20.0978 2.42143 20.848 3.17157C21.5981 3.92172 22.0195 4.93913 22.0195 6V18C22.0195 19.0609 21.5981 20.0783 20.848 20.8284C20.0978 21.5786 19.0804 22 18.0195 22H6.01953C4.95867 22 3.94125 21.5786 3.1911 20.8284C2.44096 20.0783 2.01953 19.0609 2.01953 18V6C2.01953 4.93913 2.44096 3.92172 3.1911 3.17157C3.94125 2.42143 4.95867 2 6.01953 2V2ZM6.01953 4C5.4891 4 4.98039 4.21071 4.60532 4.58579C4.23024 4.96086 4.01953 5.46957 4.01953 6V18C4.01953 18.5304 4.23024 19.0391 4.60532 19.4142C4.98039 19.7893 5.4891 20 6.01953 20H18.0195C18.55 20 19.0587 19.7893 19.4337 19.4142C19.8088 19.0391 20.0195 18.5304 20.0195 18V6C20.0195 5.46957 19.8088 4.96086 19.4337 4.58579C19.0587 4.21071 18.55 4 18.0195 4H6.01953ZM7.24853 20H6.01953C5.73948 20.0002 5.4625 19.9416 5.20653 19.828C5.43109 18.9832 5.85097 18.203 6.43233 17.5503C7.0137 16.8975 7.74028 16.3905 8.55353 16.07C8.67648 16.0175 8.80869 15.9903 8.94236 15.9898C9.07603 15.9893 9.20844 16.0156 9.33176 16.0672C9.45508 16.1188 9.56681 16.1945 9.66035 16.29C9.75389 16.3855 9.82733 16.4988 9.87634 16.6231C9.92535 16.7475 9.94893 16.8804 9.94568 17.014C9.94244 17.1477 9.91244 17.2793 9.85745 17.4011C9.80246 17.523 9.72361 17.6325 9.62555 17.7234C9.52749 17.8142 9.41221 17.8845 9.28653 17.93C8.82101 18.1134 8.39911 18.3924 8.04808 18.7489C7.69704 19.1055 7.42467 19.5317 7.24853 20ZM16.7605 20C16.5732 19.5292 16.29 19.1024 15.929 18.7467C15.568 18.3911 15.1371 18.1143 14.6635 17.934C14.5371 17.8901 14.4207 17.8213 14.3213 17.7316C14.222 17.6419 14.1416 17.5332 14.0851 17.4119C14.0285 17.2905 13.9969 17.1591 13.992 17.0253C13.9872 16.8916 14.0093 16.7582 14.0569 16.6331C14.1046 16.508 14.1769 16.3938 14.2696 16.2972C14.3622 16.2006 14.4733 16.1235 14.5963 16.0706C14.7192 16.0177 14.8516 15.9901 14.9854 15.9893C15.1193 15.9885 15.2519 16.0146 15.3755 16.066C16.2036 16.3814 16.946 16.8869 17.543 17.5417C18.1399 18.1965 18.5748 18.9824 18.8125 19.836C18.5622 19.9444 18.2923 20.0002 18.0195 20H16.7595H16.7605ZM12.0195 6C13.0804 6 14.0978 6.42143 14.848 7.17157C15.5981 7.92172 16.0195 8.93913 16.0195 10V12C16.0195 13.0609 15.5981 14.0783 14.848 14.8284C14.0978 15.5786 13.0804 16 12.0195 16C10.9587 16 9.94125 15.5786 9.1911 14.8284C8.44096 14.0783 8.01953 13.0609 8.01953 12V10C8.01953 8.93913 8.44096 7.92172 9.1911 7.17157C9.94125 6.42143 10.9587 6 12.0195 6ZM12.0195 8C11.4891 8 10.9804 8.21071 10.6053 8.58579C10.2302 8.96086 10.0195 9.46957 10.0195 10V12C10.0195 12.5304 10.2302 13.0391 10.6053 13.4142C10.9804 13.7893 11.4891 14 12.0195 14C12.55 14 13.0587 13.7893 13.4337 13.4142C13.8088 13.0391 14.0195 12.5304 14.0195 12V10C14.0195 9.46957 13.8088 8.96086 13.4337 8.58579C13.0587 8.21071 12.55 8 12.0195 8Z" fill="#FF9678"/>
</svg>
