<svg width="30" height="30" viewBox="0 0 30 30" fill="none" xmlns="http://www.w3.org/2000/svg">
<path d="M6.9175 15.7125C7.07118 15.6469 7.23645 15.6128 7.40354 15.6122C7.57062 15.6116 7.73613 15.6445 7.89028 15.709C8.04444 15.7734 8.1841 15.8681 8.30102 15.9875C8.41794 16.1069 8.50975 16.2485 8.57101 16.4039C8.63227 16.5594 8.66174 16.7255 8.65769 16.8926C8.65363 17.0596 8.61613 17.2241 8.5474 17.3764C8.47867 17.5287 8.3801 17.6657 8.25752 17.7792C8.13495 17.8928 7.99085 17.9806 7.83375 18.0375C6.99818 18.3667 6.28103 18.9398 5.77563 19.6822C5.27023 20.4246 4.99996 21.3019 5 22.2V24.375C5 24.7065 5.1317 25.0245 5.36612 25.2589C5.60054 25.4933 5.91848 25.625 6.25 25.625H16.25C16.5815 25.625 16.8995 25.4933 17.1339 25.2589C17.3683 25.0245 17.5 24.7065 17.5 24.375V22.3162C17.5001 21.3893 17.2186 20.4843 16.6926 19.721C16.1667 18.9578 15.4212 18.3724 14.555 18.0425C14.3969 17.9876 14.2515 17.9016 14.1273 17.7895C14.0031 17.6774 13.9026 17.5415 13.8319 17.3898C13.7612 17.2382 13.7217 17.0739 13.7156 16.9067C13.7096 16.7395 13.7372 16.5727 13.7968 16.4164C13.8564 16.26 13.9467 16.1172 14.0625 15.9965C14.1784 15.8757 14.3172 15.7794 14.4709 15.7133C14.6246 15.6472 14.7901 15.6126 14.9574 15.6116C15.1247 15.6106 15.2905 15.6432 15.445 15.7075C16.7845 16.2177 17.9374 17.1229 18.7508 18.3031C19.5643 19.4833 19.9999 20.8829 20 22.3162V24.375C20 25.3696 19.6049 26.3234 18.9017 27.0267C18.1984 27.7299 17.2446 28.125 16.25 28.125H6.25C5.25544 28.125 4.30161 27.7299 3.59835 27.0267C2.89509 26.3234 2.5 25.3696 2.5 24.375L2.5 22.2C2.50017 20.8002 2.9216 19.4328 3.70945 18.2758C4.49731 17.1188 5.61513 16.2256 6.9175 15.7125ZM11.25 3.125C12.5761 3.125 13.8479 3.65178 14.7855 4.58947C15.7232 5.52715 16.25 6.79892 16.25 8.125V10.625C16.25 11.9511 15.7232 13.2229 14.7855 14.1605C13.8479 15.0982 12.5761 15.625 11.25 15.625C9.92392 15.625 8.65215 15.0982 7.71447 14.1605C6.77678 13.2229 6.25 11.9511 6.25 10.625V8.125C6.25 6.79892 6.77678 5.52715 7.71447 4.58947C8.65215 3.65178 9.92392 3.125 11.25 3.125ZM11.25 5.625C10.587 5.625 9.95107 5.88839 9.48223 6.35723C9.01339 6.82607 8.75 7.46196 8.75 8.125V10.625C8.75 11.288 9.01339 11.9239 9.48223 12.3928C9.95107 12.8616 10.587 13.125 11.25 13.125C11.913 13.125 12.5489 12.8616 13.0178 12.3928C13.4866 11.9239 13.75 11.288 13.75 10.625V8.125C13.75 7.46196 13.4866 6.82607 13.0178 6.35723C12.5489 5.88839 11.913 5.625 11.25 5.625ZM22.5 26.875C22.1685 26.875 21.8505 26.7433 21.6161 26.5089C21.3817 26.2745 21.25 25.9565 21.25 25.625C21.25 25.2935 21.3817 24.9755 21.6161 24.7411C21.8505 24.5067 22.1685 24.375 22.5 24.375H23.75C24.0815 24.375 24.3995 24.2433 24.6339 24.0089C24.8683 23.7745 25 23.4565 25 23.125V20.8275C24.9999 19.9389 24.7203 19.0729 24.2007 18.3521C23.6812 17.6313 22.948 17.0922 22.105 16.8113C21.9492 16.7594 21.8052 16.6773 21.6811 16.5698C21.557 16.4623 21.4554 16.3313 21.3819 16.1845C21.3084 16.0377 21.2646 15.8778 21.2529 15.714C21.2412 15.5503 21.2619 15.3858 21.3137 15.23C21.3656 15.0742 21.4477 14.9302 21.5552 14.8061C21.6627 14.682 21.7937 14.5804 21.9405 14.5069C22.0873 14.4334 22.2472 14.3896 22.411 14.3779C22.5747 14.3662 22.7392 14.3869 22.895 14.4387C24.236 14.8856 25.4023 15.7431 26.2288 16.8897C27.0553 18.0364 27.5001 19.414 27.5 20.8275V23.125C27.5 24.1196 27.1049 25.0734 26.4017 25.7767C25.6984 26.4799 24.7446 26.875 23.75 26.875H22.5ZM18.75 4.375C18.4185 4.375 18.1005 4.2433 17.8661 4.00888C17.6317 3.77446 17.5 3.45652 17.5 3.125C17.5 2.79348 17.6317 2.47554 17.8661 2.24112C18.1005 2.0067 18.4185 1.875 18.75 1.875C20.0761 1.875 21.3479 2.40178 22.2855 3.33947C23.2232 4.27715 23.75 5.54892 23.75 6.875V9.375C23.75 10.7011 23.2232 11.9729 22.2855 12.9105C21.3479 13.8482 20.0761 14.375 18.75 14.375C18.4185 14.375 18.1005 14.2433 17.8661 14.0089C17.6317 13.7745 17.5 13.4565 17.5 13.125C17.5 12.7935 17.6317 12.4755 17.8661 12.2411C18.1005 12.0067 18.4185 11.875 18.75 11.875C19.413 11.875 20.0489 11.6116 20.5178 11.1428C20.9866 10.6739 21.25 10.038 21.25 9.375V6.875C21.25 6.21196 20.9866 5.57607 20.5178 5.10723C20.0489 4.63839 19.413 4.375 18.75 4.375Z" fill="#A59F9D"/>
</svg>
