<svg width="30" height="30" viewBox="0 0 30 30" fill="none" xmlns="http://www.w3.org/2000/svg">
<path d="M15 27.5C8.09625 27.5 2.5 21.9037 2.5 15C2.5 8.09625 8.09625 2.5 15 2.5C21.9037 2.5 27.5 8.09625 27.5 15C27.5 21.9037 21.9037 27.5 15 27.5ZM15 25C17.6522 25 20.1957 23.9464 22.0711 22.0711C23.9464 20.1957 25 17.6522 25 15C25 12.3478 23.9464 9.8043 22.0711 7.92893C20.1957 6.05357 17.6522 5 15 5C12.3478 5 9.8043 6.05357 7.92893 7.92893C6.05357 9.8043 5 12.3478 5 15C5 17.6522 6.05357 20.1957 7.92893 22.0711C9.8043 23.9464 12.3478 25 15 25ZM15 7.5C16.3261 7.5 17.5979 8.02678 18.5355 8.96447C19.4732 9.90215 20 11.1739 20 12.5V15C20 16.3261 19.4732 17.5979 18.5355 18.5355C17.5979 19.4732 16.3261 20 15 20C13.6739 20 12.4021 19.4732 11.4645 18.5355C10.5268 17.5979 10 16.3261 10 15V12.5C10 11.1739 10.5268 9.90215 11.4645 8.96447C12.4021 8.02678 13.6739 7.5 15 7.5ZM15 10C14.337 10 13.7011 10.2634 13.2322 10.7322C12.7634 11.2011 12.5 11.837 12.5 12.5V15C12.5 15.663 12.7634 16.2989 13.2322 16.7678C13.7011 17.2366 14.337 17.5 15 17.5C15.663 17.5 16.2989 17.2366 16.7678 16.7678C17.2366 16.2989 17.5 15.663 17.5 15V12.5C17.5 11.837 17.2366 11.2011 16.7678 10.7322C16.2989 10.2634 15.663 10 15 10ZM9.8875 23.595C9.16748 23.1661 8.50399 22.6487 7.9125 22.055C8.65497 21.1825 9.60128 20.5067 10.6675 20.0875C10.8212 20.0219 10.9865 19.9878 11.1535 19.9872C11.3206 19.9866 11.4861 20.0195 11.6403 20.084C11.7944 20.1484 11.9341 20.2432 12.051 20.3625C12.1679 20.4819 12.2597 20.6235 12.321 20.7789C12.3823 20.9344 12.4117 21.1005 12.4077 21.2676C12.4036 21.4346 12.3661 21.5991 12.2974 21.7514C12.2287 21.9037 12.1301 22.0407 12.0075 22.1542C11.8849 22.2678 11.7408 22.3556 11.5837 22.4125C10.9187 22.675 10.3425 23.085 9.88625 23.595H9.8875ZM20.0675 23.6225C19.5835 23.0872 18.9795 22.6742 18.305 22.4175C18.1469 22.3626 18.0015 22.2766 17.8773 22.1645C17.7531 22.0524 17.6526 21.9165 17.5819 21.7648C17.5112 21.6132 17.4717 21.4489 17.4656 21.2817C17.4596 21.1145 17.4872 20.9477 17.5468 20.7914C17.6064 20.635 17.6967 20.4922 17.8125 20.3715C17.9284 20.2507 18.0672 20.1544 18.2209 20.0883C18.3746 20.0222 18.5401 19.9876 18.7074 19.9866C18.8747 19.9856 19.0405 20.0182 19.195 20.0825C20.2998 20.5026 21.2814 21.1933 22.05 22.0913C21.4557 22.6824 20.7897 23.1968 20.0675 23.6225Z" fill="#A59F9D"/>
</svg>
