<svg width="19" height="19" viewBox="0 0 19 19" fill="none" xmlns="http://www.w3.org/2000/svg">
<path d="M8.51955 14.5C9.30748 14.5 10.0877 14.3448 10.8156 14.0433C11.5436 13.7418 12.205 13.2998 12.7622 12.7427C13.3193 12.1855 13.7613 11.5241 14.0628 10.7961C14.3644 10.0682 14.5195 9.28795 14.5195 8.50002C14.5195 7.71208 14.3644 6.93187 14.0628 6.20391C13.7613 5.47596 13.3193 4.81453 12.7622 4.25737C12.205 3.70022 11.5436 3.25827 10.8156 2.95674C10.0877 2.65521 9.30748 2.50002 8.51955 2.50002C6.92825 2.50002 5.40212 3.13216 4.27691 4.25737C3.15169 5.38259 2.51955 6.90872 2.51955 8.50002C2.51955 10.0913 3.15169 11.6174 4.27691 12.7427C5.40212 13.8679 6.92825 14.5 8.51955 14.5ZM14.8395 13.406L18.4195 16.986C18.515 17.0783 18.5911 17.1887 18.6434 17.3108C18.6957 17.4328 18.7232 17.564 18.7243 17.6968C18.7253 17.8296 18.6999 17.9613 18.6496 18.0841C18.5992 18.207 18.5249 18.3186 18.4309 18.4124C18.337 18.5062 18.2253 18.5804 18.1023 18.6306C17.9794 18.6808 17.8477 18.706 17.7149 18.7048C17.5821 18.7035 17.4509 18.6758 17.329 18.6233C17.207 18.5708 17.0967 18.4946 17.0045 18.399L13.4245 14.819C11.817 16.0669 9.79434 16.6552 7.7683 16.4642C5.74226 16.2732 3.86515 15.3173 2.5191 13.7911C1.17304 12.2648 0.459231 10.283 0.522972 8.24894C0.586713 6.21492 1.42322 4.28164 2.86219 2.84266C4.30117 1.40368 6.23445 0.567182 8.26847 0.503441C10.3025 0.4397 12.2844 1.15351 13.8106 2.49957C15.3369 3.84562 16.2928 5.72273 16.4837 7.74877C16.6747 9.77481 16.0864 11.7975 14.8385 13.405L14.8395 13.406Z" fill="#A59F9D"/>
</svg>
