<svg width="20" height="20" viewBox="0 0 20 20" fill="none" xmlns="http://www.w3.org/2000/svg">
<path d="M17.1455 4.21252L9.20918 12.0791C9.44452 12.413 9.64461 12.7737 9.80531 13.156L11.7855 17.8821L17.1455 4.21149V4.21252ZM7.81268 10.6948L15.75 2.82727L1.95817 8.14014L6.72617 10.1039C7.10889 10.2613 7.4732 10.4594 7.81268 10.6948ZM19.8576 2.61557L13.6091 18.5501C13.2152 19.5572 12.0779 20.0741 11.0701 19.7051C10.8247 19.6152 10.6006 19.476 10.412 19.2961C10.2234 19.1163 10.0744 18.8997 9.9743 18.66L7.99411 13.9339C7.60881 13.0129 6.87052 12.2811 5.94135 11.8992L1.17232 9.93644C0.183261 9.52847 -0.268761 8.39499 0.1646 7.4023C0.270859 7.15974 0.424502 6.94042 0.616673 6.75699C0.808844 6.57357 1.03574 6.42966 1.28429 6.33356L17.3601 0.137946C17.7094 -0.0015831 18.0924 -0.0362092 18.4614 0.0383774C18.8304 0.112964 19.1691 0.29347 19.4354 0.557429C19.7017 0.821388 19.8838 1.15715 19.9591 1.52291C20.0343 1.88868 19.9994 2.26831 19.8586 2.61455L19.8576 2.61557Z" fill="#F54768"/>
</svg>
