<svg width="25" height="24" viewBox="0 0 25 24" fill="none" xmlns="http://www.w3.org/2000/svg">
<path d="M12.0195 14C12.55 14 13.0587 13.7893 13.4337 13.4142C13.8088 13.0391 14.0195 12.5304 14.0195 12C14.0195 11.4696 13.8088 10.9609 13.4337 10.5858C13.0587 10.2107 12.55 10 12.0195 10C11.4891 10 10.9804 10.2107 10.6053 10.5858C10.2302 10.9609 10.0195 11.4696 10.0195 12C10.0195 12.5304 10.2302 13.0391 10.6053 13.4142C10.9804 13.7893 11.4891 14 12.0195 14ZM12.0195 16C10.9587 16 9.94125 15.5786 9.1911 14.8284C8.44096 14.0783 8.01953 13.0609 8.01953 12C8.01953 10.9391 8.44096 9.92172 9.1911 9.17157C9.94125 8.42143 10.9587 8 12.0195 8C13.0804 8 14.0978 8.42143 14.848 9.17157C15.5981 9.92172 16.0195 10.9391 16.0195 12C16.0195 13.0609 15.5981 14.0783 14.848 14.8284C14.0978 15.5786 13.0804 16 12.0195 16ZM18.0195 11H19.0195C19.2847 11 19.5391 11.1054 19.7266 11.2929C19.9142 11.4804 20.0195 11.7348 20.0195 12C20.0195 12.2652 19.9142 12.5196 19.7266 12.7071C19.5391 12.8946 19.2847 13 19.0195 13H18.0195C17.7543 13 17.5 12.8946 17.3124 12.7071C17.1249 12.5196 17.0195 12.2652 17.0195 12C17.0195 11.7348 17.1249 11.4804 17.3124 11.2929C17.5 11.1054 17.7543 11 18.0195 11ZM12.0195 17C12.2847 17 12.5391 17.1054 12.7266 17.2929C12.9142 17.4804 13.0195 17.7348 13.0195 18V19C13.0195 19.2652 12.9142 19.5196 12.7266 19.7071C12.5391 19.8946 12.2847 20 12.0195 20C11.7543 20 11.5 19.8946 11.3124 19.7071C11.1249 19.5196 11.0195 19.2652 11.0195 19V18C11.0195 17.7348 11.1249 17.4804 11.3124 17.2929C11.5 17.1054 11.7543 17 12.0195 17ZM12.0195 4C12.2847 4 12.5391 4.10536 12.7266 4.29289C12.9142 4.48043 13.0195 4.73478 13.0195 5V6C13.0195 6.26522 12.9142 6.51957 12.7266 6.70711C12.5391 6.89464 12.2847 7 12.0195 7C11.7543 7 11.5 6.89464 11.3124 6.70711C11.1249 6.51957 11.0195 6.26522 11.0195 6V5C11.0195 4.73478 11.1249 4.48043 11.3124 4.29289C11.5 4.10536 11.7543 4 12.0195 4V4ZM5.01953 11H6.01953C6.28475 11 6.5391 11.1054 6.72664 11.2929C6.91417 11.4804 7.01953 11.7348 7.01953 12C7.01953 12.2652 6.91417 12.5196 6.72664 12.7071C6.5391 12.8946 6.28475 13 6.01953 13H5.01953C4.75431 13 4.49996 12.8946 4.31242 12.7071C4.12489 12.5196 4.01953 12.2652 4.01953 12C4.01953 11.7348 4.12489 11.4804 4.31242 11.2929C4.49996 11.1054 4.75431 11 5.01953 11ZM16.9695 15.536L17.6765 16.243C17.772 16.3352 17.8482 16.4456 17.9006 16.5676C17.953 16.6896 17.9806 16.8208 17.9818 16.9536C17.9829 17.0864 17.9576 17.2181 17.9074 17.341C17.8571 17.4639 17.7828 17.5755 17.6889 17.6694C17.595 17.7633 17.4834 17.8375 17.3605 17.8878C17.2376 17.9381 17.1059 17.9634 16.9731 17.9623C16.8404 17.9611 16.7091 17.9335 16.5871 17.8811C16.4651 17.8287 16.3548 17.7525 16.2625 17.657L15.5555 16.95C15.3734 16.7614 15.2726 16.5088 15.2749 16.2466C15.2771 15.9844 15.3823 15.7336 15.5677 15.5482C15.7531 15.3628 16.0039 15.2576 16.2661 15.2553C16.5283 15.253 16.7809 15.3538 16.9695 15.536ZM8.48353 15.536C8.671 15.7235 8.77632 15.9778 8.77632 16.243C8.77632 16.5082 8.671 16.7625 8.48353 16.95L7.77653 17.657C7.58793 17.8392 7.33533 17.94 7.07313 17.9377C6.81093 17.9354 6.56012 17.8302 6.37471 17.6448C6.1893 17.4594 6.08414 17.2086 6.08186 16.9464C6.07958 16.6842 6.18037 16.4316 6.36253 16.243L7.06953 15.536C7.25706 15.3485 7.51137 15.2432 7.77653 15.2432C8.0417 15.2432 8.296 15.3485 8.48353 15.536ZM17.6765 6.343C17.864 6.53053 17.9693 6.78484 17.9693 7.05C17.9693 7.31516 17.864 7.56947 17.6765 7.757L16.9695 8.464C16.7809 8.64616 16.5283 8.74695 16.2661 8.74467C16.0039 8.7424 15.7531 8.63723 15.5677 8.45182C15.3823 8.26641 15.2771 8.0156 15.2749 7.7534C15.2726 7.4912 15.3734 7.2386 15.5555 7.05L16.2625 6.343C16.4501 6.15553 16.7044 6.05021 16.9695 6.05021C17.2347 6.05021 17.489 6.15553 17.6765 6.343ZM7.77653 6.343L8.48353 7.05C8.57904 7.14225 8.65522 7.25259 8.70763 7.3746C8.76004 7.4966 8.78763 7.62782 8.78878 7.7606C8.78994 7.89338 8.76463 8.02506 8.71435 8.14795C8.66407 8.27085 8.58982 8.3825 8.49593 8.4764C8.40203 8.57029 8.29038 8.64454 8.16749 8.69482C8.04459 8.7451 7.91291 8.7704 7.78013 8.76925C7.64735 8.7681 7.51613 8.74051 7.39413 8.6881C7.27212 8.63569 7.16178 8.55951 7.06953 8.464L6.36253 7.757C6.18037 7.5684 6.07958 7.3158 6.08186 7.0536C6.08414 6.7914 6.1893 6.54059 6.37471 6.35518C6.56012 6.16977 6.81093 6.0646 7.07313 6.06233C7.33533 6.06005 7.58793 6.16084 7.77653 6.343Z"  fill="#A59F9D"/>
</svg>
