<svg width="70" height="41" viewBox="0 0 70 41" fill="none" xmlns="http://www.w3.org/2000/svg">
<g clip-path="url(#clip0_159_568)">
<path d="M45.3514 19.189C44.4456 19.189 43.7114 19.9215 43.7114 20.8251C43.7114 21.7288 44.4456 22.4613 45.3514 22.4613C46.2572 22.4613 46.9915 21.7288 46.9915 20.8251C46.9915 19.9215 46.2572 19.189 45.3514 19.189Z" fill="#FCFBFA"/>
<path d="M49.7775 19.189C48.8717 19.189 48.1374 19.9215 48.1374 20.8251C48.1374 21.7288 48.8717 22.4613 49.7775 22.4613C50.6833 22.4613 51.4175 21.7288 51.4175 20.8251C51.4175 19.9215 50.6833 19.189 49.7775 19.189Z" fill="#FCFBFA"/>
<path d="M53.7918 19.189C52.886 19.189 52.1517 19.9215 52.1517 20.8251C52.1517 21.7288 52.886 22.4613 53.7918 22.4613C54.6976 22.4613 55.4318 21.7288 55.4318 20.8251C55.4318 19.9215 54.6976 19.189 53.7918 19.189Z" fill="#FCFBFA"/>
<path d="M52.0831 0.780378C39.8823 -0.561416 29.5618 8.92698 29.5618 20.8251C29.5618 20.8594 29.5618 20.8867 29.5618 20.921C29.2049 25.3571 25.7739 28.917 21.389 29.4646C20.5107 30.2177 19.4333 30.7653 18.2187 30.9981C17.2512 31.1829 16.2905 31.1487 15.3916 30.9433C16.1258 30.4367 16.7365 29.7864 17.2169 29.0539C13.2232 27.7121 10.4303 23.7757 10.8695 19.2437C11.3018 14.7528 15.0828 11.1108 19.5912 10.8233C23.3379 10.5768 26.6454 12.5348 28.3678 15.5196C29.3353 11.679 31.3253 8.2287 34.029 5.46981C29.7676 1.4855 23.8045 -0.698333 17.3267 0.198477C8.31678 1.45812 1.13905 8.83114 0.130325 17.854C-1.22836 30.0328 8.28933 40.3427 20.2225 40.3427C25.9043 40.3427 31.0234 37.9878 34.6946 34.2225C38.4001 38.3711 43.78 40.9999 49.7843 40.9999C61.7106 40.9999 71.2214 30.7037 69.8764 18.5318C68.854 9.28981 61.3469 1.80726 52.0899 0.787223L52.0831 0.780378ZM52.783 29.7042C53.2633 30.4367 53.8741 31.0871 54.6083 31.5937C53.7025 31.8059 52.7487 31.8333 51.7811 31.6485C50.5597 31.4157 49.4892 30.868 48.6109 30.115C44.027 29.5468 40.4656 25.6789 40.397 20.9689C40.397 20.8799 40.4175 20.7909 40.4175 20.6951H40.397C40.4656 15.5127 44.7407 11.3504 49.9696 11.4463C54.6632 11.5353 58.705 15.2594 59.1441 19.9215C59.5627 24.4329 56.7767 28.3556 52.7899 29.6974L52.783 29.7042Z" fill="#FCFBFA"/>
<path d="M14.1427 20.1679C14.1427 21.0716 14.877 21.8041 15.7828 21.8041C16.6886 21.8041 17.4228 21.0716 17.4228 20.1679C17.4228 19.2642 16.6886 18.5317 15.7828 18.5317C14.877 18.5317 14.1427 19.2642 14.1427 20.1679Z" fill="#FCFBFA"/>
<path d="M18.5756 20.1679C18.5756 21.0716 19.3099 21.8041 20.2157 21.8041C21.1215 21.8041 21.8557 21.0716 21.8557 20.1679C21.8557 19.2642 21.1215 18.5317 20.2157 18.5317C19.3099 18.5317 18.5756 19.2642 18.5756 20.1679Z" fill="#FCFBFA"/>
<path d="M22.5831 20.1679C22.5831 21.0716 23.3173 21.8041 24.2231 21.8041C25.1289 21.8041 25.8632 21.0716 25.8632 20.1679C25.8632 19.2642 25.1289 18.5317 24.2231 18.5317C23.3173 18.5317 22.5831 19.2642 22.5831 20.1679Z" fill="#FCFBFA"/>
</g>
<defs>
<clipPath id="clip0_159_568">
<rect width="70" height="41" fill="white"/>
</clipPath>
</defs>
</svg>
