<svg width="177" height="104" viewBox="0 0 177 104" fill="none" xmlns="http://www.w3.org/2000/svg">
<g clip-path="url(#clip0_159_566)">
<path d="M114.674 48.6746C112.384 48.6746 110.527 50.5326 110.527 52.8248C110.527 55.117 112.384 56.9751 114.674 56.9751C116.965 56.9751 118.821 55.117 118.821 52.8248C118.821 50.5326 116.965 48.6746 114.674 48.6746Z" fill="#FCFBFA"/>
<path d="M125.866 48.6746C123.576 48.6746 121.719 50.5326 121.719 52.8248C121.719 55.117 123.576 56.9751 125.866 56.9751C128.156 56.9751 130.013 55.117 130.013 52.8248C130.013 50.5326 128.156 48.6746 125.866 48.6746Z" fill="#FCFBFA"/>
<path d="M136.016 48.6746C133.726 48.6746 131.869 50.5326 131.869 52.8248C131.869 55.117 133.726 56.9751 136.016 56.9751C138.307 56.9751 140.163 55.117 140.163 52.8248C140.163 50.5326 138.307 48.6746 136.016 48.6746Z" fill="#FCFBFA"/>
<path d="M131.696 1.97979C100.845 -1.42378 74.7491 22.6443 74.7491 52.825C74.7491 52.9118 74.7491 52.9813 74.7491 53.0681C73.8468 64.3207 65.1712 73.3506 54.0837 74.7399C51.8628 76.65 49.1386 78.0392 46.0675 78.6297C43.6209 79.0985 41.1918 79.0117 38.9188 78.4907C40.7753 77.2057 42.3196 75.556 43.5342 73.6979C33.4358 70.2944 26.3738 60.3094 27.4843 48.8137C28.5774 37.4221 38.138 28.1838 49.5377 27.4545C59.0115 26.8293 67.3748 31.7958 71.73 39.367C74.1765 29.6251 79.2083 20.8731 86.0447 13.8749C75.2696 3.7684 60.1914 -1.77108 43.8118 0.503753C21.0296 3.69894 2.88024 22.4012 0.329612 45.2885C-3.10593 76.1812 20.9602 102.333 51.134 102.333C65.5009 102.333 78.4449 96.3595 87.7278 86.8087C97.0975 97.3319 110.701 104 125.883 104C156.04 104 180.088 77.8829 176.688 47.0077C174.102 23.5647 155.12 4.58457 131.713 1.99716L131.696 1.97979ZM133.466 75.3476C134.68 77.2057 136.225 78.8554 138.081 80.1404C135.791 80.6787 133.379 80.7482 130.932 80.2793C127.844 79.6889 125.137 78.2997 122.916 76.3895C111.325 74.9482 102.32 65.1369 102.147 53.1897C102.147 52.9639 102.199 52.7382 102.199 52.4951H102.147C102.32 39.3496 113.13 28.7916 126.352 29.0347C138.22 29.2605 148.44 38.7071 149.55 50.5328C150.609 61.9765 143.564 71.9267 133.483 75.3303L133.466 75.3476Z" fill="#FCFBFA"/>
<path d="M35.7609 51.1581C35.7609 53.4503 37.6174 55.3084 39.9078 55.3084C42.1982 55.3084 44.0548 53.4503 44.0548 51.1581C44.0548 48.8659 42.1982 47.0078 39.9078 47.0078C37.6174 47.0078 35.7609 48.8659 35.7609 51.1581Z" fill="#FCFBFA"/>
<path d="M46.9698 51.1581C46.9698 53.4503 48.8264 55.3084 51.1167 55.3084C53.4071 55.3084 55.2637 53.4503 55.2637 51.1581C55.2637 48.8659 53.4071 47.0078 51.1167 47.0078C48.8264 47.0078 46.9698 48.8659 46.9698 51.1581Z" fill="#FCFBFA"/>
<path d="M57.1029 51.1581C57.1029 53.4503 58.9595 55.3084 61.2498 55.3084C63.5402 55.3084 65.3968 53.4503 65.3968 51.1581C65.3968 48.8659 63.5402 47.0078 61.2498 47.0078C58.9595 47.0078 57.1029 48.8659 57.1029 51.1581Z" fill="#FCFBFA"/>
</g>
<defs>
<clipPath id="clip0_159_566">
<rect width="177" height="104" fill="white"/>
</clipPath>
</defs>
</svg>
