<svg width="469" height="169" viewBox="0 0 469 169" fill="none" xmlns="http://www.w3.org/2000/svg">
<g clip-path="url(#clip0_159_532)">
<path d="M310.342 117.294H339.019V100.968H310.342V86.9069H340.62V70.5947H310.342H308.186H291.012V148.956H308.186H310.342H341.271V132.643H310.342V117.294Z" fill="#0B0F15"/>
<path d="M469 70.5946H406.071V80.0999C403.141 76.8863 399.587 74.2693 395.436 72.2489C389.888 69.5641 383.526 68.2217 376.377 68.2217C369.649 68.2217 363.775 69.3607 358.77 71.6523C353.764 73.9438 349.586 77.0219 346.263 80.8863C342.939 84.7508 340.457 89.0628 338.856 93.8222C337.242 98.5816 336.442 103.436 336.442 108.372V110.731C336.442 115.165 337.229 119.748 338.802 124.467C340.376 129.186 342.804 133.579 346.1 137.62C349.396 141.66 353.574 144.915 358.661 147.396C363.748 149.864 369.825 151.098 376.92 151.098C384.503 151.098 391.096 149.647 396.684 146.759C402.273 143.857 406.709 139.979 410.005 135.111C413.302 130.243 415.269 124.874 415.906 119.002H395.938C395.219 123.084 393.13 126.338 389.658 128.779C386.185 131.22 381.939 132.426 376.934 132.426C373.705 132.426 370.843 131.911 368.347 130.867C365.837 129.837 363.708 128.304 361.958 126.311C360.208 124.304 358.878 121.904 357.983 119.124C357.088 116.331 356.64 113.185 356.64 109.673C356.64 106.161 357.088 103.016 357.983 100.222C358.878 97.4291 360.167 95.0561 361.849 93.09C363.531 91.1238 365.607 89.6052 368.076 88.534C370.544 87.4628 373.312 86.9204 376.391 86.9204C379.687 86.9204 382.617 87.4763 385.195 88.5882C387.772 89.7001 389.888 91.2594 391.53 93.2527C393.171 95.246 394.256 97.6189 394.758 100.331H414.74C414.333 95.829 413.193 91.7205 411.389 87.9916H427.572V148.969H447.54V87.9916H469.014V70.5946H469Z" fill="#0B0F15"/>
<path d="M264.832 70.4863V132.969H263.217L237.132 70.4863H223.038H204.372H204.345V132.969H202.731L176.631 70.4863H144.211V148.847H162.347V86.3646H163.961L190.061 148.847H204.372H222.848H223.038V86.3646H224.448L250.548 148.847H283.524V70.4863H264.832Z" fill="#0B0F15"/>
<path d="M102.294 107.07C100.504 107.07 99.0524 108.521 99.0524 110.311C99.0524 112.101 100.504 113.552 102.294 113.552C104.085 113.552 105.536 112.101 105.536 110.311C105.536 108.521 104.085 107.07 102.294 107.07Z" fill="#0B0F15"/>
<path d="M111.057 107.07C109.267 107.07 107.815 108.521 107.815 110.311C107.815 112.101 109.267 113.552 111.057 113.552C112.848 113.552 114.3 112.101 114.3 110.311C114.3 108.521 112.848 107.07 111.057 107.07Z" fill="#0B0F15"/>
<path d="M118.98 107.07C117.189 107.07 115.738 108.521 115.738 110.311C115.738 112.101 117.189 113.552 118.98 113.552C120.77 113.552 122.222 112.101 122.222 110.311C122.222 108.521 120.77 107.07 118.98 107.07Z" fill="#0B0F15"/>
<path d="M111.058 70.3643C88.9871 70.3643 71.0947 88.2494 71.0947 110.311C71.0947 110.379 71.0947 110.433 71.0947 110.501C70.3893 119.287 63.6068 126.338 54.9387 127.423C53.2024 128.915 51.0726 129.999 48.6716 130.46C46.7589 130.827 44.8598 130.759 43.0828 130.352C44.5343 129.349 45.7415 128.06 46.6911 126.61C39.3524 124.128 34.0484 117.199 34.0484 109.023C34.0484 98.7717 42.3638 90.4597 52.6191 90.4597C59.5101 90.4597 65.5195 94.2292 68.7208 99.8022C70.6335 92.1953 74.5674 85.3613 79.912 79.8967C72.7632 73.1983 63.1863 69.0762 52.6191 69.0762C30.5486 69.0762 12.6562 86.9613 12.6562 109.023C12.6562 131.084 30.5486 148.969 52.6191 148.969C63.851 148.969 73.9705 144.305 81.2279 136.847C88.553 145.064 99.1881 150.271 111.058 150.271C133.128 150.271 151.02 132.386 151.02 110.324C151.02 88.263 133.128 70.3779 111.058 70.3779V70.3643ZM116.999 127.898C117.949 129.349 119.156 130.637 120.607 131.64C118.817 132.061 116.931 132.115 115.019 131.749C112.604 131.288 110.488 130.203 108.751 128.711C99.69 127.586 92.6497 119.925 92.514 110.596C92.514 110.419 92.5547 110.243 92.5547 110.053H92.514C92.6497 99.9107 100.897 91.7343 111.071 91.7343C121.245 91.7343 129.642 100.046 129.642 110.297C129.642 118.474 124.351 125.403 116.999 127.884V127.898Z" fill="#0B0F15"/>
<path d="M40.6139 109.009C40.6139 110.799 42.0654 112.25 43.856 112.25C45.6465 112.25 47.098 110.799 47.098 109.009C47.098 107.219 45.6465 105.769 43.856 105.769C42.0654 105.769 40.6139 107.219 40.6139 109.009Z" fill="#0B0F15"/>
<path d="M49.377 109.009C49.377 110.799 50.8284 112.25 52.619 112.25C54.4096 112.25 55.8611 110.799 55.8611 109.009C55.8611 107.219 54.4096 105.769 52.619 105.769C50.8284 105.769 49.377 107.219 49.377 109.009Z" fill="#0B0F15"/>
<path d="M57.2991 109.009C57.2991 110.799 58.7505 112.25 60.5411 112.25C62.3317 112.25 63.7832 110.799 63.7832 109.009C63.7832 107.219 62.3317 105.769 60.5411 105.769C58.7505 105.769 57.2991 107.219 57.2991 109.009Z" fill="#0B0F15"/>
<path d="M102.294 105.47C100.504 105.47 99.0524 106.921 99.0524 108.711C99.0524 110.501 100.504 111.952 102.294 111.952C104.085 111.952 105.536 110.501 105.536 108.711C105.536 106.921 104.085 105.47 102.294 105.47Z" fill="#E13547"/>
<path d="M111.057 105.47C109.267 105.47 107.815 106.921 107.815 108.711C107.815 110.501 109.267 111.952 111.057 111.952C112.848 111.952 114.3 110.501 114.3 108.711C114.3 106.921 112.848 105.47 111.057 105.47Z" fill="#E13547"/>
<path d="M118.979 105.47C117.189 105.47 115.737 106.921 115.737 108.711C115.737 110.501 117.189 111.952 118.979 111.952C120.77 111.952 122.222 110.501 122.222 108.711C122.222 106.921 120.77 105.47 118.979 105.47Z" fill="#E13547"/>
<path d="M115.602 69.0082C91.4831 66.3505 71.0811 85.1441 71.0811 108.711C71.0811 108.779 71.0811 108.833 71.0811 108.901C70.3758 117.687 63.5932 124.738 54.9251 125.823C53.1888 127.315 51.059 128.399 48.658 128.86C46.7453 129.226 44.8462 129.159 43.0692 128.752C44.5207 127.748 45.728 126.46 46.6775 125.009C38.7826 122.352 33.2616 114.555 34.1298 105.578C34.9979 96.602 42.4588 89.4697 51.371 88.9002C58.7776 88.412 65.316 92.2901 68.7208 98.202C70.6335 90.5951 74.5674 83.7611 79.912 78.2965C71.5017 70.4184 59.7 66.0929 46.9081 67.8828C29.0971 70.3642 14.908 84.9814 12.914 102.853C10.2281 126.976 29.0429 147.396 52.6326 147.396C63.8645 147.396 73.9841 142.732 81.2414 135.274C88.5666 143.491 99.2016 148.698 111.071 148.698C134.647 148.698 153.448 128.304 150.79 104.195C148.769 85.8899 133.928 71.0693 115.629 69.0489L115.602 69.0082ZM116.999 126.298C117.949 127.748 119.156 129.037 120.607 130.04C118.817 130.46 116.931 130.515 115.019 130.148C112.604 129.687 110.488 128.603 108.751 127.111C99.6899 125.986 92.6497 118.324 92.514 108.995C92.514 108.819 92.5547 108.643 92.5547 108.453H92.514C92.6497 98.1885 101.101 89.9442 111.437 90.1341C120.716 90.3104 128.706 97.6868 129.574 106.921C130.401 115.857 124.894 123.626 117.013 126.284L116.999 126.298Z" fill="url(#paint0_linear_159_532)"/>
<path d="M40.6139 107.409C40.6139 109.199 42.0654 110.65 43.856 110.65C45.6465 110.65 47.098 109.199 47.098 107.409C47.098 105.619 45.6465 104.168 43.856 104.168C42.0654 104.168 40.6139 105.619 40.6139 107.409Z" fill="#E13547"/>
<path d="M49.377 107.409C49.377 109.199 50.8284 110.65 52.619 110.65C54.4096 110.65 55.8611 109.199 55.8611 107.409C55.8611 105.619 54.4096 104.168 52.619 104.168C50.8284 104.168 49.377 105.619 49.377 107.409Z" fill="#E13547"/>
<path d="M57.299 107.409C57.299 109.199 58.7504 110.65 60.541 110.65C62.3316 110.65 63.7831 109.199 63.7831 107.409C63.7831 105.619 62.3316 104.168 60.541 104.168C58.7504 104.168 57.299 105.619 57.299 107.409Z" fill="#E13547"/>
<path d="M31.5146 24.4805C31.1824 26.8058 30.8835 29.3969 30.6177 32.2537C30.352 35.0441 30.0862 37.901 29.8205 40.8243C29.5547 43.6811 29.289 46.4715 29.0232 49.1955C28.8239 51.9194 28.6578 54.3112 28.5249 56.3708C30.7838 55.9721 33.2752 55.5071 35.9992 54.9756C38.7896 54.4441 41.6132 53.9126 44.4701 53.3811C47.3269 52.7831 50.1173 52.2848 52.8413 51.8862C55.6317 51.4211 58.1563 51.0889 60.4152 50.8896C60.6145 50.8896 60.8471 50.9561 61.1128 51.0889C61.6443 51.3547 61.9101 51.7865 61.9101 52.3845C61.9101 53.2482 61.744 53.9126 61.4118 54.3776C61.0796 54.7763 60.681 55.1084 60.2159 55.3742C59.7508 55.5735 59.2525 55.7728 58.721 55.9721C58.256 56.1715 57.8241 56.4704 57.4255 56.8691C55.3659 57.4006 53.107 57.9653 50.6488 58.5632C48.1906 59.1612 45.6659 59.7591 43.0749 60.3571C40.4838 60.955 37.8927 61.5529 35.3016 62.1509C32.7105 62.7488 30.2855 63.3468 28.0266 63.9447C25.9671 64.4762 24.4058 64.1108 23.3427 62.8485C22.2797 61.5862 21.8479 59.5266 22.0472 56.6697C22.3794 51.2883 22.778 45.9068 23.2431 40.5253C23.7082 35.0774 24.2729 29.6627 24.9373 24.2812C25.0701 23.1517 25.4355 22.2216 26.0335 21.4908C26.6979 20.76 27.4951 20.3281 28.4253 20.1952C29.9533 19.9959 30.8503 20.3945 31.116 21.3911C31.4482 22.3212 31.5811 23.351 31.5146 24.4805Z" fill="#0B0F15"/>
<path d="M88.865 39.8277C89.1307 40.4921 88.865 41.1564 88.0677 41.8208C87.2705 42.4188 86.0081 42.8174 84.2808 43.0167C81.291 43.4153 78.2349 43.8472 75.1123 44.3123C71.9897 44.7109 68.8007 45.1427 65.5452 45.6078C65.4123 48.9961 65.4123 52.3845 65.5452 55.7728C67.0733 55.7728 68.9003 55.64 71.0264 55.3742C73.2188 55.042 75.4445 54.6434 77.7034 54.1783C79.9623 53.7132 82.1215 53.2482 84.1811 52.7831C86.3071 52.2516 88.1009 51.8198 89.5626 51.4876C90.2934 51.2883 91.0574 51.1554 91.8547 51.0889C92.652 50.9561 93.3496 50.9561 93.9475 51.0889C94.6119 51.1554 95.1434 51.3879 95.542 51.7865C95.9406 52.1852 96.14 52.7499 96.14 53.4807C96.14 53.68 95.9074 53.979 95.4424 54.3776C94.9773 54.7763 94.3793 55.2081 93.6485 55.6732C92.9841 56.0718 92.2533 56.4704 91.4561 56.8691C90.7253 57.2013 90.0609 57.467 89.4629 57.6663C85.3438 58.9951 81.291 60.1577 77.3048 61.1543C73.3185 62.0844 69.4318 62.5827 65.6449 62.6492C63.4524 62.7156 61.7915 62.1509 60.662 60.955C59.5326 59.6927 58.9346 57.8988 58.8682 55.5735C58.7353 52.3181 58.7353 49.0294 58.8682 45.7075C57.7387 45.0431 57.174 44.1129 57.174 42.9171C57.3069 41.6547 57.9048 40.791 58.9678 40.326C59.1007 38.3993 59.2004 36.4726 59.2668 34.5459C59.3333 32.5527 59.4329 30.5928 59.5658 28.6661C58.835 28.5332 58.1706 28.1678 57.5726 27.5699C57.0411 26.9719 56.7754 26.3075 56.7754 25.5767C56.7754 24.9788 56.9083 24.4473 57.174 23.9822C57.4398 23.4507 57.9381 23.0521 58.6689 22.7863C59.8648 22.5206 61.3264 22.2216 63.0538 21.8894C64.7812 21.5572 66.5418 21.2582 68.3356 20.9925C70.1959 20.7267 71.9565 20.4942 73.6174 20.2949C75.3448 20.0956 76.8065 19.9627 78.0024 19.8963C79.3976 19.7634 80.7263 19.8963 81.9886 20.2949C83.3174 20.6935 84.5465 21.4576 85.676 22.587C85.9417 23.5171 85.7424 24.2147 85.078 24.6798C84.4801 25.1449 83.6828 25.4438 82.6862 25.5767C81.6897 25.7096 80.4938 25.8757 79.0986 26.075C77.7034 26.2079 76.2417 26.374 74.7137 26.5733C73.252 26.7726 71.7572 26.9719 70.2291 27.1712C68.7675 27.3041 67.3723 27.4702 66.0435 27.6695C66.0435 27.8024 66.0435 27.9685 66.0435 28.1678C66.1099 28.3007 66.1432 28.4335 66.1432 28.5664C66.0103 30.2938 65.9106 32.0212 65.8442 33.7486C65.7778 35.476 65.7113 37.2034 65.6449 38.9308C68.4353 38.4657 71.2921 38.0671 74.2154 37.7349C77.1387 37.3363 79.464 37.0705 81.1914 36.9376C82.5866 36.8048 83.9486 36.9708 85.2773 37.4359C86.6061 37.901 87.802 38.6982 88.865 39.8277Z" fill="#0B0F15"/>
<path d="M99.0456 64.6423C98.7134 65.7718 98.2815 66.8016 97.75 67.7317C97.2185 68.5954 96.6538 69.0937 96.0559 69.2265C94.7935 69.5587 93.8302 69.3594 93.1658 68.6286C92.5014 67.8978 92.2357 66.9677 92.3686 65.8382C92.9001 61.8519 93.7638 57.6663 94.9596 53.2814C96.1555 48.8301 97.5507 44.4119 99.1452 40.027C100.74 35.5756 102.467 31.2904 104.327 27.1712C106.254 22.9856 108.214 19.1987 110.207 15.8103C110.539 15.2788 110.905 14.9798 111.303 14.9134C111.768 14.7805 112.167 14.7805 112.499 14.9134C112.831 14.6476 113.23 14.4151 113.695 14.2158C114.16 14.0165 114.625 13.9168 115.09 13.9168C115.29 13.9168 115.489 13.95 115.688 14.0165C115.954 14.0829 116.22 14.2822 116.486 14.6144C116.751 14.9466 117.05 15.4449 117.382 16.1093C117.781 16.7072 118.246 17.6041 118.778 18.8C119.708 22.1884 120.771 25.6764 121.967 29.264C123.229 32.8517 124.525 36.4393 125.853 40.027C126.053 39.9606 126.219 39.9273 126.352 39.9273C126.551 39.8609 126.75 39.7945 126.95 39.728C127.68 39.6616 128.511 39.6948 129.441 39.8277C130.371 39.9606 131.002 40.4256 131.335 41.2229C131.733 42.2195 131.667 43.0832 131.135 43.814C130.604 44.5448 129.64 45.2756 128.245 46.0064C129.109 48.1324 129.973 50.2252 130.836 52.2848C131.7 54.278 132.597 56.2379 133.527 58.1646C133.593 58.4968 133.693 59.0283 133.826 59.7591C133.959 60.4235 134.025 61.1211 134.025 61.8519C134.092 62.5163 134.058 63.1475 133.926 63.7454C133.793 64.3433 133.527 64.742 133.128 64.9413C132.663 65.1406 132.165 65.1074 131.633 64.8416C131.168 64.5759 130.703 64.2437 130.238 63.8451C129.773 63.38 129.341 62.9149 128.943 62.4499C128.611 61.9184 128.345 61.4533 128.145 61.0547C127.016 58.8622 125.92 56.6697 124.857 54.4773C123.86 52.2184 122.897 49.9595 121.967 47.7006C119.176 48.2321 116.12 48.6972 112.798 49.0958C109.543 49.4944 106.321 49.7602 103.132 49.8931C102.401 52.4177 101.67 54.9091 100.939 57.3673C100.275 59.7591 99.6435 62.1841 99.0456 64.6423ZM113.197 22.7863C110.141 29.6294 107.483 36.4726 105.224 43.3157C109.676 43.1828 114.426 42.6181 119.475 41.6215C117.084 35.5756 114.991 29.2972 113.197 22.7863Z" fill="#0B0F15"/>
<path d="M141.496 62.9481C141.296 60.4899 141.13 57.6995 140.997 54.5769C140.931 51.4544 140.898 48.2653 140.898 45.0099C140.898 41.688 140.898 38.4325 140.898 35.2435C140.964 32.0544 141.064 29.1644 141.197 26.5733C141.197 25.9089 141.496 25.4106 142.094 25.0784C142.758 24.6798 143.289 24.5137 143.688 24.5801C144.884 24.713 145.681 25.1449 146.08 25.8757C146.545 26.5401 146.844 27.5034 146.977 28.7657C146.91 30.8918 146.844 33.0178 146.777 35.1438C146.777 37.2698 146.811 39.3958 146.877 41.5219C149.867 40.9904 152.358 39.8941 154.351 38.2332C156.411 36.5722 157.873 34.6787 158.736 32.5527C159.068 31.7555 159.301 30.7921 159.434 29.6627C159.633 28.5332 159.666 27.4038 159.534 26.2743C159.401 25.0784 159.069 23.9822 158.537 22.9856C158.072 21.9226 157.341 21.0921 156.345 20.4942C154.883 19.6305 153.288 19.1654 151.561 19.099C149.834 19.0326 148.04 19.2983 146.18 19.8963C144.386 20.4278 142.592 21.2915 140.798 22.4873C139.071 23.6832 137.443 25.1116 135.915 26.7726C136.114 27.7692 135.981 28.6661 135.516 29.4633C135.051 30.1942 134.387 30.7257 133.523 31.0579C132.992 31.1907 132.36 30.925 131.63 30.2606C130.899 29.5298 130.533 28.799 130.533 28.0681C130.533 25.4106 131.264 23.1185 132.726 21.1918C134.254 19.1987 136.147 17.5377 138.406 16.2089C140.665 14.8802 143.09 13.8836 145.681 13.2192C148.272 12.5548 150.664 12.2227 152.857 12.2227C156.112 12.2227 158.836 13.186 161.028 15.1127C163.221 16.973 164.716 19.3315 165.513 22.1884C166.908 27.1712 166.543 31.6558 164.417 35.6421C162.357 39.6284 158.969 43.0832 154.252 46.0064C157.707 48.1324 160.929 50.1588 163.918 52.0855C166.975 54.0122 170.031 56.105 173.087 58.3639C173.486 58.7625 173.917 59.3605 174.382 60.1577C174.914 60.8886 174.848 62.018 174.183 63.5461C173.785 64.4762 173.087 65.0077 172.09 65.1406C171.16 65.207 170.23 64.9081 169.3 64.2437C167.838 63.0478 166.177 61.8187 164.317 60.5564C162.523 59.2276 160.63 57.9321 158.637 56.6697C156.644 55.341 154.65 54.0787 152.657 52.8828C150.664 51.6205 148.771 50.4578 146.977 49.3948C147.043 52.0523 147.076 54.7098 147.076 57.3673C147.143 59.9584 147.243 62.5163 147.375 65.0409C147.375 65.9711 147.11 66.6355 146.578 67.0341C146.047 67.3663 145.382 67.5324 144.585 67.5324C144.186 67.4659 143.821 67.2666 143.489 66.9344C143.157 66.5358 142.824 66.104 142.492 65.6389C142.226 65.1074 141.994 64.6091 141.795 64.144C141.595 63.6125 141.496 63.2139 141.496 62.9481Z" fill="#0B0F15"/>
<path d="M211.479 23.7829C211.014 29.4301 210.449 35.2102 209.785 41.1232C209.187 46.9698 208.356 52.4841 207.293 57.6663C207.028 58.9286 206.662 59.8256 206.197 60.3571C205.732 60.8886 205.068 61.254 204.204 61.4533C203.473 61.5862 202.444 61.3536 201.115 60.7557C199.852 60.1577 198.789 59.294 197.926 58.1646C196.796 56.6365 195.567 54.9756 194.238 53.1817C192.976 51.3215 191.581 49.4612 190.053 47.6009C188.591 45.6742 187.03 43.7808 185.369 41.9205C183.774 40.0602 182.08 38.3328 180.286 36.7383C180.087 41.1232 179.921 45.4749 179.788 49.7934C179.655 54.0454 179.655 58.3307 179.788 62.6492C179.788 63.2471 179.257 63.5461 178.194 63.5461C176.931 63.5461 175.901 62.9149 175.104 61.6526C174.307 60.3238 173.842 58.9951 173.709 57.6663C173.51 56.3376 173.41 54.4441 173.41 51.9859C173.41 49.4612 173.443 46.8369 173.51 44.1129C173.643 41.389 173.775 38.7647 173.908 36.24C174.041 33.7154 174.174 31.7222 174.307 30.2606C174.44 28.6661 174.805 27.5034 175.403 26.7726C176.068 26.0418 176.699 25.7096 177.297 25.776C178.625 25.9089 179.489 26.3075 179.888 26.9719C180.353 27.5699 180.619 28.3339 180.685 29.264C183.077 30.9914 185.269 32.8517 187.262 34.8448C189.322 36.838 191.182 38.8643 192.843 40.9239C194.571 42.9835 196.132 45.0431 197.527 47.1027C198.989 49.0958 200.351 50.9228 201.613 52.5838C202.41 48.5975 203.041 44.1462 203.507 39.2297C204.038 34.3133 204.57 29.1644 205.101 23.7829C205.035 23.1185 205.433 22.4873 206.297 21.8894C207.161 21.225 207.958 20.926 208.689 20.9925C210.549 21.1254 211.479 22.0555 211.479 23.7829Z" fill="#0B0F15"/>
</g>
<defs>
<linearGradient id="paint0_linear_159_532" x1="17.0784" y1="91.0968" x2="149.969" y2="125.931" gradientUnits="userSpaceOnUse">
<stop offset="0.07" stop-color="#E5454D"/>
<stop offset="0.93" stop-color="#CD376A"/>
</linearGradient>
<clipPath id="clip0_159_532">
<rect width="469" height="169" fill="white"/>
</clipPath>
</defs>
</svg>
