<svg width="127" height="127" viewBox="0 0 127 127" fill="none" xmlns="http://www.w3.org/2000/svg">
<path d="M127 126C127 126.552 126.552 127 126 127H0.999999C0.447715 127 0 126.552 0 126V0.999999C0 0.447715 0.447715 0 1 0H126C126.552 0 127 0.447715 127 1V126ZM42.7269 42.6567V83.2795C42.7269 83.8318 43.1746 84.2795 43.7269 84.2795H83.5029C84.0551 84.2795 84.5029 83.8318 84.5029 83.2795V70.5034C84.5029 69.819 85.1762 69.3401 85.8461 69.4804C88.7501 70.0882 90.9888 69.2107 92.6717 66.8058C94.0693 64.8147 94.2353 62.7214 92.927 60.5771C91.2106 57.7542 88.7451 56.989 85.6099 57.5129C84.9659 57.6205 84.3497 57.1465 84.3497 56.4936V43.6375C84.3497 43.0852 83.902 42.6375 83.3497 42.6375H70.5801C69.8975 42.6375 69.4178 43.308 69.5513 43.9774C70.1294 46.8768 69.289 49.3989 66.5952 50.6404C64.7828 51.4765 61.8918 51.4063 60.0984 50.5128C57.5759 49.2571 56.736 46.8272 57.3163 44.0233C57.4561 43.3476 56.9754 42.6631 56.2854 42.6631H42.7333C42.7297 42.6631 42.7269 42.6602 42.7269 42.6567Z" fill="#080941"/>
<path d="M42.7267 42.6564H57.6986C56.5116 46.026 57.1753 49.0511 60.0982 50.5061C61.8916 51.3996 64.7826 51.4698 66.595 50.6338C69.6966 49.2042 70.3412 46.0771 69.1925 42.6309H84.3495V57.7751C88.0893 56.8178 90.9867 57.3858 92.9268 60.5704C94.2351 62.7147 94.0691 64.808 92.6715 66.7991C90.7314 69.5625 88.0702 70.3092 84.5027 69.103V84.2728H42.7267V42.65V42.6564Z" fill="#0DFCA7"/>
</svg>
