<svg width="469" height="208" viewBox="0 0 469 208" fill="none" xmlns="http://www.w3.org/2000/svg">
<g clip-path="url(#clip0_159_621)">
<path d="M310.342 117.294H339.019V100.968H310.342V86.9067H340.62V70.5945H310.342H308.186H291.012V148.955H308.186H310.342H341.271V132.643H310.342V117.294Z" fill="#0B0F15"/>
<path d="M469 70.5944H406.071V80.0996C403.141 76.886 399.587 74.269 395.436 72.2486C389.888 69.5638 383.526 68.2214 376.377 68.2214C369.649 68.2214 363.775 69.3604 358.77 71.652C353.764 73.9436 349.586 77.0216 346.263 80.8861C342.939 84.7506 340.457 89.0625 338.856 93.822C337.242 98.5814 336.442 103.436 336.442 108.371V110.731C336.442 115.165 337.229 119.748 338.802 124.467C340.376 129.185 342.804 133.579 346.1 137.619C349.396 141.66 353.574 144.915 358.661 147.396C363.748 149.864 369.825 151.098 376.92 151.098C384.503 151.098 391.096 149.647 396.684 146.759C402.273 143.857 406.709 139.979 410.005 135.111C413.302 130.243 415.269 124.873 415.906 119.002H395.938C395.219 123.084 393.13 126.338 389.658 128.779C386.185 131.219 381.939 132.426 376.934 132.426C373.705 132.426 370.843 131.911 368.347 130.867C365.837 129.836 363.708 128.304 361.958 126.311C360.208 124.304 358.878 121.904 357.983 119.124C357.088 116.331 356.64 113.185 356.64 109.673C356.64 106.161 357.088 103.015 357.983 100.222C358.878 97.4288 360.167 95.0559 361.849 93.0897C363.531 91.1236 365.607 89.6049 368.076 88.5337C370.544 87.4625 373.312 86.9201 376.391 86.9201C379.687 86.9201 382.617 87.4761 385.195 88.588C387.772 89.6998 389.888 91.2592 391.53 93.2525C393.171 95.2457 394.256 97.6187 394.758 100.331H414.74C414.333 95.8288 413.193 91.7202 411.389 87.9913H427.572V148.969H447.54V87.9913H469.014V70.5944H469Z" fill="#0B0F15"/>
<path d="M264.832 70.4861V132.969H263.217L237.132 70.4861H223.038H204.372H204.345V132.969H202.731L176.631 70.4861H144.211V148.847H162.347V86.3644H163.961L190.061 148.847H204.372H222.848H223.038V86.3644H224.448L250.548 148.847H283.524V70.4861H264.832Z" fill="#0B0F15"/>
<path d="M102.294 107.07C100.504 107.07 99.0524 108.52 99.0524 110.31C99.0524 112.1 100.504 113.551 102.294 113.551C104.085 113.551 105.536 112.1 105.536 110.31C105.536 108.52 104.085 107.07 102.294 107.07Z" fill="#0B0F15"/>
<path d="M111.057 107.07C109.267 107.07 107.815 108.52 107.815 110.31C107.815 112.1 109.267 113.551 111.057 113.551C112.848 113.551 114.3 112.1 114.3 110.31C114.3 108.52 112.848 107.07 111.057 107.07Z" fill="#0B0F15"/>
<path d="M118.98 107.07C117.189 107.07 115.738 108.52 115.738 110.31C115.738 112.1 117.189 113.551 118.98 113.551C120.77 113.551 122.222 112.1 122.222 110.31C122.222 108.52 120.77 107.07 118.98 107.07Z" fill="#0B0F15"/>
<path d="M111.058 70.3638C88.9871 70.3638 71.0947 88.249 71.0947 110.31C71.0947 110.378 71.0947 110.432 71.0947 110.5C70.3893 119.287 63.6068 126.338 54.9387 127.423C53.2024 128.914 51.0726 129.999 48.6716 130.46C46.7589 130.826 44.8598 130.758 43.0828 130.352C44.5343 129.348 45.7415 128.06 46.6911 126.609C39.3524 124.128 34.0484 117.199 34.0484 109.022C34.0484 98.7712 42.3638 90.4592 52.6191 90.4592C59.5101 90.4592 65.5195 94.2287 68.7208 99.8017C70.6335 92.1948 74.5674 85.3608 79.912 79.8962C72.7632 73.1978 63.1863 69.0757 52.6191 69.0757C30.5486 69.0757 12.6562 86.9608 12.6562 109.022C12.6562 131.084 30.5486 148.969 52.6191 148.969C63.851 148.969 73.9705 144.304 81.2279 136.847C88.553 145.064 99.1881 150.271 111.058 150.271C133.128 150.271 151.02 132.385 151.02 110.324C151.02 88.2625 133.128 70.3774 111.058 70.3774V70.3638ZM116.999 127.897C117.949 129.348 119.156 130.636 120.607 131.64C118.817 132.06 116.931 132.114 115.019 131.748C112.604 131.287 110.488 130.202 108.751 128.711C99.69 127.585 92.6497 119.924 92.514 110.595C92.514 110.419 92.5547 110.243 92.5547 110.053H92.514C92.6497 99.9102 100.897 91.7338 111.071 91.7338C121.245 91.7338 129.642 100.046 129.642 110.297C129.642 118.473 124.351 125.402 116.999 127.884V127.897Z" fill="#0B0F15"/>
<path d="M40.6139 109.009C40.6139 110.799 42.0654 112.25 43.856 112.25C45.6465 112.25 47.098 110.799 47.098 109.009C47.098 107.219 45.6465 105.768 43.856 105.768C42.0654 105.768 40.6139 107.219 40.6139 109.009Z" fill="#0B0F15"/>
<path d="M49.377 109.009C49.377 110.799 50.8284 112.25 52.619 112.25C54.4096 112.25 55.8611 110.799 55.8611 109.009C55.8611 107.219 54.4096 105.768 52.619 105.768C50.8284 105.768 49.377 107.219 49.377 109.009Z" fill="#0B0F15"/>
<path d="M57.2991 109.009C57.2991 110.799 58.7505 112.25 60.5411 112.25C62.3317 112.25 63.7832 110.799 63.7832 109.009C63.7832 107.219 62.3317 105.768 60.5411 105.768C58.7505 105.768 57.2991 107.219 57.2991 109.009Z" fill="#0B0F15"/>
<path d="M102.294 105.47C100.504 105.47 99.0524 106.921 99.0524 108.71C99.0524 110.5 100.504 111.951 102.294 111.951C104.085 111.951 105.536 110.5 105.536 108.71C105.536 106.921 104.085 105.47 102.294 105.47Z" fill="#E13547"/>
<path d="M111.057 105.47C109.267 105.47 107.815 106.921 107.815 108.71C107.815 110.5 109.267 111.951 111.057 111.951C112.848 111.951 114.3 110.5 114.3 108.71C114.3 106.921 112.848 105.47 111.057 105.47Z" fill="#E13547"/>
<path d="M118.979 105.47C117.189 105.47 115.737 106.921 115.737 108.71C115.737 110.5 117.189 111.951 118.979 111.951C120.77 111.951 122.222 110.5 122.222 108.71C122.222 106.921 120.77 105.47 118.979 105.47Z" fill="#E13547"/>
<path d="M115.602 69.008C91.4831 66.3503 71.0811 85.1439 71.0811 108.71C71.0811 108.778 71.0811 108.833 71.0811 108.9C70.3758 117.687 63.5932 124.738 54.9251 125.823C53.1888 127.314 51.059 128.399 48.658 128.86C46.7453 129.226 44.8462 129.158 43.0692 128.752C44.5207 127.748 45.728 126.46 46.6775 125.009C38.7826 122.351 33.2616 114.555 34.1298 105.578C34.9979 96.6018 42.4588 89.4694 51.371 88.8999C58.7776 88.4118 65.316 92.2898 68.7208 98.2018C70.6335 90.5949 74.5674 83.7608 79.912 78.2963C71.5017 70.4182 59.7 66.0927 46.9081 67.8825C29.0971 70.3639 14.908 84.9812 12.914 102.853C10.2281 126.975 29.0429 147.396 52.6326 147.396C63.8645 147.396 73.9841 142.732 81.2414 135.274C88.5666 143.491 99.2016 148.698 111.071 148.698C134.647 148.698 153.448 128.304 150.79 104.195C148.769 85.8897 133.928 71.069 115.629 69.0487L115.602 69.008ZM116.999 126.297C117.949 127.748 119.156 129.036 120.607 130.04C118.817 130.46 116.931 130.514 115.019 130.148C112.604 129.687 110.488 128.602 108.751 127.111C99.6899 125.985 92.6497 118.324 92.514 108.995C92.514 108.819 92.5547 108.643 92.5547 108.453H92.514C92.6497 98.1882 101.101 89.944 111.437 90.1338C120.716 90.3101 128.706 97.6865 129.574 106.921C130.401 115.856 124.894 123.626 117.013 126.284L116.999 126.297Z" fill="url(#paint0_linear_159_621)"/>
<path d="M40.6139 107.409C40.6139 109.199 42.0654 110.649 43.856 110.649C45.6465 110.649 47.098 109.199 47.098 107.409C47.098 105.619 45.6465 104.168 43.856 104.168C42.0654 104.168 40.6139 105.619 40.6139 107.409Z" fill="#E13547"/>
<path d="M49.377 107.409C49.377 109.199 50.8284 110.649 52.619 110.649C54.4096 110.649 55.8611 109.199 55.8611 107.409C55.8611 105.619 54.4096 104.168 52.619 104.168C50.8284 104.168 49.377 105.619 49.377 107.409Z" fill="#E13547"/>
<path d="M57.299 107.409C57.299 109.199 58.7504 110.649 60.541 110.649C62.3316 110.649 63.7831 109.199 63.7831 107.409C63.7831 105.619 62.3316 104.168 60.541 104.168C58.7504 104.168 57.299 105.619 57.299 107.409Z" fill="#E13547"/>
<path d="M31.5146 24.4807C31.1824 26.8061 30.8835 29.3972 30.6177 32.254C30.352 35.0444 30.0862 37.9012 29.8205 40.8245C29.5547 43.6813 29.289 46.4717 29.0232 49.1957C28.8239 51.9197 28.6578 54.3114 28.5249 56.371C30.7838 55.9724 33.2752 55.5073 35.9992 54.9758C38.7896 54.4443 41.6132 53.9128 44.4701 53.3813C47.3269 52.7834 50.1173 52.2851 52.8413 51.8864C55.6317 51.4214 58.1563 51.0892 60.4152 50.8899C60.6145 50.8899 60.8471 50.9563 61.1128 51.0892C61.6443 51.3549 61.9101 51.7868 61.9101 52.3847C61.9101 53.2484 61.744 53.9128 61.4118 54.3779C61.0796 54.7765 60.681 55.1087 60.2159 55.3744C59.7508 55.5738 59.2525 55.7731 58.721 55.9724C58.256 56.1717 57.8241 56.4707 57.4255 56.8693C55.3659 57.4008 53.107 57.9655 50.6488 58.5635C48.1906 59.1614 45.6659 59.7594 43.0749 60.3573C40.4838 60.9552 37.8927 61.5532 35.3016 62.1511C32.7105 62.7491 30.2855 63.347 28.0266 63.945C25.9671 64.4765 24.4058 64.1111 23.3427 62.8487C22.2797 61.5864 21.8479 59.5268 22.0472 56.67C22.3794 51.2885 22.778 45.907 23.2431 40.5255C23.7082 35.0776 24.2729 29.6629 24.9373 24.2814C25.0701 23.152 25.4355 22.2218 26.0335 21.491C26.6979 20.7602 27.4951 20.3283 28.4253 20.1955C29.9533 19.9962 30.8503 20.3948 31.116 21.3914C31.4482 22.3215 31.5811 23.3513 31.5146 24.4807Z" fill="#0B0F15"/>
<path d="M88.865 39.8279C89.1307 40.4923 88.865 41.1567 88.0677 41.8211C87.2705 42.419 86.0081 42.8176 84.2808 43.017C81.291 43.4156 78.2349 43.8474 75.1123 44.3125C71.9897 44.7111 68.8007 45.143 65.5452 45.608C65.4123 48.9964 65.4123 52.3847 65.5452 55.7731C67.0733 55.7731 68.9003 55.6402 71.0264 55.3744C73.2188 55.0423 75.4445 54.6436 77.7034 54.1786C79.9623 53.7135 82.1215 53.2484 84.1811 52.7834C86.3071 52.2519 88.1009 51.82 89.5626 51.4878C90.2934 51.2885 91.0574 51.1556 91.8547 51.0892C92.652 50.9563 93.3496 50.9563 93.9475 51.0892C94.6119 51.1556 95.1434 51.3882 95.542 51.7868C95.9406 52.1854 96.14 52.7501 96.14 53.481C96.14 53.6803 95.9074 53.9792 95.4424 54.3779C94.9773 54.7765 94.3793 55.2084 93.6485 55.6734C92.9841 56.072 92.2533 56.4707 91.4561 56.8693C90.7253 57.2015 90.0609 57.4672 89.4629 57.6666C85.3438 58.9953 81.291 60.158 77.3048 61.1546C73.3185 62.0847 69.4318 62.583 65.6449 62.6494C63.4524 62.7159 61.7915 62.1511 60.662 60.9552C59.5326 59.6929 58.9346 57.8991 58.8682 55.5738C58.7353 52.3183 58.7353 49.0296 58.8682 45.7077C57.7387 45.0433 57.174 44.1132 57.174 42.9173C57.3069 41.655 57.9048 40.7913 58.9678 40.3262C59.1007 38.3995 59.2004 36.4728 59.2668 34.5461C59.3333 32.553 59.4329 30.593 59.5658 28.6663C58.835 28.5335 58.1706 28.168 57.5726 27.5701C57.0411 26.9722 56.7754 26.3078 56.7754 25.577C56.7754 24.979 56.9083 24.4475 57.174 23.9824C57.4398 23.4509 57.9381 23.0523 58.6689 22.7866C59.8648 22.5208 61.3264 22.2218 63.0538 21.8896C64.7812 21.5575 66.5418 21.2585 68.3356 20.9927C70.1959 20.727 71.9565 20.4944 73.6174 20.2951C75.3448 20.0958 76.8065 19.9629 78.0024 19.8965C79.3976 19.7636 80.7263 19.8965 81.9886 20.2951C83.3174 20.6938 84.5465 21.4578 85.676 22.5872C85.9417 23.5174 85.7424 24.215 85.078 24.68C84.4801 25.1451 83.6828 25.4441 82.6862 25.577C81.6897 25.7098 80.4938 25.8759 79.0986 26.0752C77.7034 26.2081 76.2417 26.3742 74.7137 26.5735C73.252 26.7728 71.7572 26.9722 70.2291 27.1715C68.7675 27.3043 67.3723 27.4704 66.0435 27.6698C66.0435 27.8026 66.0435 27.9687 66.0435 28.168C66.1099 28.3009 66.1432 28.4338 66.1432 28.5667C66.0103 30.2941 65.9106 32.0215 65.8442 33.7488C65.7778 35.4762 65.7113 37.2036 65.6449 38.931C68.4353 38.4659 71.2921 38.0673 74.2154 37.7351C77.1387 37.3365 79.464 37.0708 81.1914 36.9379C82.5866 36.805 83.9486 36.9711 85.2773 37.4362C86.6061 37.9012 87.802 38.6985 88.865 39.8279Z" fill="#0B0F15"/>
<path d="M99.0456 64.6426C98.7134 65.772 98.2815 66.8018 97.75 67.7319C97.2185 68.5956 96.6538 69.0939 96.0559 69.2268C94.7935 69.559 93.8302 69.3597 93.1658 68.6288C92.5014 67.898 92.2357 66.9679 92.3686 65.8384C92.9001 61.8522 93.7638 57.6666 94.9596 53.2816C96.1555 48.8303 97.5507 44.4122 99.1452 40.0272C100.74 35.5759 102.467 31.2906 104.327 27.1715C106.254 22.9859 108.214 19.1989 110.207 15.8106C110.539 15.2791 110.905 14.9801 111.303 14.9136C111.768 14.7808 112.167 14.7808 112.499 14.9136C112.831 14.6479 113.23 14.4154 113.695 14.216C114.16 14.0167 114.625 13.9171 115.09 13.9171C115.29 13.9171 115.489 13.9503 115.688 14.0167C115.954 14.0832 116.22 14.2825 116.486 14.6147C116.751 14.9469 117.05 15.4451 117.382 16.1095C117.781 16.7075 118.246 17.6044 118.778 18.8003C119.708 22.1886 120.771 25.6766 121.967 29.2643C123.229 32.8519 124.525 36.4396 125.853 40.0272C126.053 39.9608 126.219 39.9276 126.352 39.9276C126.551 39.8612 126.75 39.7947 126.95 39.7283C127.68 39.6618 128.511 39.6951 129.441 39.8279C130.371 39.9608 131.002 40.4259 131.335 41.2231C131.733 42.2197 131.667 43.0834 131.135 43.8142C130.604 44.545 129.64 45.2759 128.245 46.0067C129.109 48.1327 129.973 50.2255 130.836 52.2851C131.7 54.2782 132.597 56.2381 133.527 58.1648C133.593 58.497 133.693 59.0285 133.826 59.7594C133.959 60.4237 134.025 61.1213 134.025 61.8522C134.092 62.5165 134.058 63.1477 133.926 63.7456C133.793 64.3436 133.527 64.7422 133.128 64.9415C132.663 65.1408 132.165 65.1076 131.633 64.8419C131.168 64.5761 130.703 64.2439 130.238 63.8453C129.773 63.3802 129.341 62.9152 128.943 62.4501C128.611 61.9186 128.345 61.4535 128.145 61.0549C127.016 58.8624 125.92 56.67 124.857 54.4775C123.86 52.2186 122.897 49.9597 121.967 47.7008C119.176 48.2324 116.12 48.6974 112.798 49.096C109.543 49.4947 106.321 49.7604 103.132 49.8933C102.401 52.4179 101.67 54.9094 100.939 57.3676C100.275 59.7594 99.6435 62.1843 99.0456 64.6426ZM113.197 22.7866C110.141 29.6297 107.483 36.4728 105.224 43.3159C109.676 43.1831 114.426 42.6183 119.475 41.6218C117.084 35.5759 114.991 29.2975 113.197 22.7866Z" fill="#0B0F15"/>
<path d="M141.496 62.9484C141.296 60.4902 141.13 57.6998 140.997 54.5772C140.931 51.4546 140.898 48.2656 140.898 45.0101C140.898 41.6882 140.898 38.4327 140.898 35.2437C140.964 32.0547 141.064 29.1646 141.197 26.5735C141.197 25.9091 141.496 25.4109 142.094 25.0787C142.758 24.68 143.289 24.514 143.688 24.5804C144.884 24.7133 145.681 25.1451 146.08 25.8759C146.545 26.5403 146.844 27.5037 146.977 28.766C146.91 30.892 146.844 33.018 146.777 35.144C146.777 37.2701 146.811 39.3961 146.877 41.5221C149.867 40.9906 152.358 39.8944 154.351 38.2334C156.411 36.5725 157.873 34.679 158.736 32.553C159.068 31.7557 159.301 30.7923 159.434 29.6629C159.633 28.5335 159.666 27.404 159.534 26.2746C159.401 25.0787 159.069 23.9824 158.537 22.9859C158.072 21.9229 157.341 21.0924 156.345 20.4944C154.883 19.6307 153.288 19.1657 151.561 19.0992C149.834 19.0328 148.04 19.2986 146.18 19.8965C144.386 20.428 142.592 21.2917 140.798 22.4876C139.071 23.6835 137.443 25.1119 135.915 26.7728C136.114 27.7694 135.981 28.6663 135.516 29.4636C135.051 30.1944 134.387 30.7259 133.523 31.0581C132.992 31.191 132.36 30.9252 131.63 30.2608C130.899 29.53 130.533 28.7992 130.533 28.0684C130.533 25.4109 131.264 23.1187 132.726 21.192C134.254 19.1989 136.147 17.5379 138.406 16.2092C140.665 14.8804 143.09 13.8839 145.681 13.2195C148.272 12.5551 150.664 12.2229 152.857 12.2229C156.112 12.2229 158.836 13.1863 161.028 15.113C163.221 16.9732 164.716 19.3318 165.513 22.1886C166.908 27.1715 166.543 31.656 164.417 35.6423C162.357 39.6286 158.969 43.0834 154.252 46.0067C157.707 48.1327 160.929 50.1591 163.918 52.0858C166.975 54.0125 170.031 56.1053 173.087 58.3642C173.486 58.7628 173.917 59.3607 174.382 60.158C174.914 60.8888 174.848 62.0183 174.183 63.5463C173.785 64.4765 173.087 65.008 172.09 65.1408C171.16 65.2073 170.23 64.9083 169.3 64.2439C167.838 63.048 166.177 61.8189 164.317 60.5566C162.523 59.2279 160.63 57.9323 158.637 56.67C156.644 55.3412 154.65 54.0789 152.657 52.883C150.664 51.6207 148.771 50.458 146.977 49.395C147.043 52.0525 147.076 54.7101 147.076 57.3676C147.143 59.9587 147.243 62.5165 147.375 65.0412C147.375 65.9713 147.11 66.6357 146.578 67.0343C146.047 67.3665 145.382 67.5326 144.585 67.5326C144.186 67.4662 143.821 67.2669 143.489 66.9347C143.157 66.536 142.824 66.1042 142.492 65.6391C142.226 65.1076 141.994 64.6093 141.795 64.1443C141.595 63.6128 141.496 63.2141 141.496 62.9484Z" fill="#0B0F15"/>
<path d="M211.479 23.7831C211.014 29.4304 210.449 35.2105 209.785 41.1235C209.187 46.97 208.356 52.4844 207.293 57.6666C207.028 58.9289 206.662 59.8258 206.197 60.3573C205.732 60.8888 205.068 61.2542 204.204 61.4535C203.473 61.5864 202.444 61.3539 201.115 60.7559C199.852 60.158 198.789 59.2943 197.926 58.1648C196.796 56.6368 195.567 54.9758 194.238 53.182C192.976 51.3217 191.581 49.4615 190.053 47.6012C188.591 45.6745 187.03 43.781 185.369 41.9207C183.774 40.0605 182.08 38.3331 180.286 36.7386C180.087 41.1235 179.921 45.4752 179.788 49.7936C179.655 54.0457 179.655 58.3309 179.788 62.6494C179.788 63.2474 179.257 63.5463 178.194 63.5463C176.931 63.5463 175.901 62.9152 175.104 61.6528C174.307 60.3241 173.842 58.9953 173.709 57.6666C173.51 56.3378 173.41 54.4443 173.41 51.9861C173.41 49.4615 173.443 46.8372 173.51 44.1132C173.643 41.3892 173.775 38.7649 173.908 36.2403C174.041 33.7156 174.174 31.7225 174.307 30.2608C174.44 28.6663 174.805 27.5037 175.403 26.7728C176.068 26.042 176.699 25.7098 177.297 25.7763C178.625 25.9092 179.489 26.3078 179.888 26.9722C180.353 27.5701 180.619 28.3341 180.685 29.2643C183.077 30.9917 185.269 32.8519 187.262 34.8451C189.322 36.8382 191.182 38.8646 192.843 40.9242C194.571 42.9837 196.132 45.0433 197.527 47.1029C198.989 49.096 200.351 50.9231 201.613 52.584C202.41 48.5978 203.041 44.1464 203.507 39.23C204.038 34.3136 204.57 29.1646 205.101 23.7831C205.035 23.1187 205.433 22.4876 206.297 21.8896C207.161 21.2253 207.958 20.9263 208.689 20.9927C210.549 21.1256 211.479 22.0557 211.479 23.7831Z" fill="#0B0F15"/>
<path d="M33.24 175C33.3467 175.48 33.4534 176.053 33.56 176.72C33.6667 177.36 33.7334 178.04 33.76 178.76C33.8134 179.453 33.8267 180.173 33.8 180.92C33.7734 181.667 33.6934 182.387 33.56 183.08C33.4 183.88 33.08 184.613 32.6 185.28C32.12 185.947 31.5334 186.547 30.84 187.08C30.1734 187.613 29.4267 188.053 28.6 188.4C27.8 188.72 26.9867 188.96 26.16 189.12C25.36 189.253 24.56 189.28 23.76 189.2C22.9867 189.093 22.2934 188.867 21.68 188.52C20.9867 188.12 20.4267 187.6 20 186.96C19.5734 186.32 19.3867 185.533 19.44 184.6C19.4934 183.693 19.5734 182.867 19.68 182.12C19.7867 181.347 19.92 180.613 20.08 179.92C20.2667 179.227 20.4667 178.533 20.68 177.84C20.8934 177.12 21.12 176.373 21.36 175.6C21.4934 175.253 21.7334 175.053 22.08 175C22.2134 174.973 22.3734 174.973 22.56 175C22.64 175 22.7467 175.053 22.88 175.16C23.04 175.24 23.1867 175.36 23.32 175.52C23.4534 175.68 23.56 175.867 23.64 176.08C23.7467 176.293 23.76 176.533 23.68 176.8C23.44 177.653 23.2 178.52 22.96 179.4C22.72 180.28 22.5067 181.12 22.32 181.92C22.16 182.72 22.0534 183.44 22 184.08C21.9734 184.693 22.04 185.173 22.2 185.52C22.5467 186.027 23.0134 186.36 23.6 186.52C24.2134 186.653 24.8534 186.667 25.52 186.56C26.1867 186.453 26.8267 186.28 27.44 186.04C28.08 185.773 28.6267 185.493 29.08 185.2C29.8 184.72 30.32 184.12 30.64 183.4C30.9867 182.68 31.2 181.893 31.28 181.04C31.36 180.187 31.3467 179.293 31.24 178.36C31.16 177.427 31.04 176.507 30.88 175.6C30.8267 175.36 30.84 175.053 30.92 174.68C31 174.307 31.2134 174.013 31.56 173.8C31.9334 173.587 32.2667 173.613 32.56 173.88C32.88 174.147 33.1067 174.52 33.24 175Z" fill="#0B0F15"/>
<path d="M39.5047 176.8C39.5847 177.2 39.6647 177.653 39.7447 178.16C39.8514 178.64 39.9581 179.147 40.0647 179.68C40.1714 180.187 40.2647 180.707 40.3447 181.24C40.4247 181.773 40.4914 182.28 40.5447 182.76C40.8647 182.067 41.2114 181.333 41.5847 180.56C41.9581 179.787 42.3581 179.08 42.7847 178.44C43.2381 177.773 43.7047 177.227 44.1847 176.8C44.6914 176.373 45.2381 176.16 45.8247 176.16C46.7047 176.16 47.4381 176.48 48.0247 177.12C48.6381 177.76 49.1447 178.56 49.5447 179.52C49.9714 180.453 50.3047 181.44 50.5447 182.48C50.7847 183.52 50.9847 184.44 51.1447 185.24C51.3047 185.96 50.9847 186.493 50.1847 186.84C49.8114 187.027 49.5314 187.053 49.3447 186.92C49.1581 186.787 49.0514 186.653 49.0247 186.52C48.8914 186.2 48.7181 185.64 48.5047 184.84C48.3181 184.04 48.0914 183.227 47.8247 182.4C47.5847 181.573 47.3047 180.853 46.9847 180.24C46.6647 179.627 46.3047 179.347 45.9047 179.4C45.4247 179.427 44.9981 179.787 44.6247 180.48C44.3047 181.04 43.9714 181.667 43.6247 182.36C43.3047 183.027 42.9847 183.72 42.6647 184.44C42.3447 185.133 42.0247 185.84 41.7047 186.56C41.4114 187.253 41.1314 187.893 40.8647 188.48C40.6781 188.667 40.4381 188.8 40.1447 188.88C39.8781 188.933 39.5981 188.907 39.3047 188.8C39.0381 188.72 38.8247 188.587 38.6647 188.4C38.5047 188.213 38.4247 188.027 38.4247 187.84C38.1847 185.76 37.9314 183.867 37.6647 182.16C37.4247 180.453 37.1047 178.707 36.7047 176.92C36.5181 176.307 36.4781 175.827 36.5847 175.48C36.7181 175.107 37.1181 174.96 37.7847 175.04C38.7181 175.2 39.2914 175.787 39.5047 176.8Z" fill="#0B0F15"/>
<path d="M63.8979 175.2C64.0045 175.947 64.0845 176.747 64.1379 177.6C64.2179 178.427 64.2712 179.267 64.2979 180.12C64.3512 180.973 64.3779 181.8 64.3779 182.6C64.3779 183.4 64.3645 184.12 64.3379 184.76C65.1912 185.347 65.6979 185.867 65.8579 186.32C66.0445 186.773 66.0712 187.173 65.9379 187.52C65.7779 188 65.4845 188.253 65.0579 188.28C64.6579 188.28 64.1912 188.133 63.6579 187.84C63.2845 188.107 62.8579 188.4 62.3779 188.72C61.8979 189.013 61.3912 189.307 60.8579 189.6C60.3245 189.867 59.7912 190.107 59.2579 190.32C58.7245 190.533 58.2312 190.68 57.7779 190.76C56.9245 190.893 56.1512 190.733 55.4579 190.28C54.7912 189.827 54.3379 189.147 54.0979 188.24C53.9379 187.627 53.8979 187 53.9779 186.36C54.0579 185.693 54.2579 185.067 54.5779 184.48C54.8979 183.867 55.3245 183.32 55.8579 182.84C56.4179 182.36 57.0712 181.987 57.8179 181.72C58.0045 181.64 58.2579 181.573 58.5779 181.52C58.9245 181.467 59.2712 181.453 59.6179 181.48C59.9912 181.48 60.3645 181.547 60.7379 181.68C61.1112 181.813 61.4579 182.04 61.7779 182.36C61.7779 181.907 61.7645 181.413 61.7379 180.88C61.7379 180.32 61.7245 179.76 61.6979 179.2C61.6712 178.64 61.6312 178.12 61.5779 177.64C61.5512 177.133 61.5112 176.707 61.4579 176.36C61.4045 175.96 61.2445 175.72 60.9779 175.64C60.7379 175.533 60.4312 175.547 60.0579 175.68C59.4179 175.893 58.6712 176.307 57.8179 176.92C56.9645 177.533 56.1512 178.187 55.3779 178.88C55.1379 179.12 54.8579 179.227 54.5379 179.2C54.2445 179.173 53.9912 179.053 53.7779 178.84C53.5645 178.627 53.4445 178.387 53.4179 178.12C53.3912 177.827 53.4979 177.52 53.7379 177.2C54.1912 176.72 54.6979 176.227 55.2579 175.72C55.8179 175.213 56.4045 174.76 57.0179 174.36C57.6312 173.933 58.2579 173.587 58.8979 173.32C59.5379 173.053 60.1779 172.907 60.8179 172.88C61.7512 172.853 62.4712 173.067 62.9779 173.52C63.4845 173.947 63.7912 174.507 63.8979 175.2ZM59.2579 183.8C58.9112 183.88 58.5379 184.053 58.1379 184.32C57.7645 184.56 57.4179 184.867 57.0979 185.24C56.8045 185.587 56.5779 185.987 56.4179 186.44C56.2845 186.867 56.2845 187.293 56.4179 187.72C56.4712 187.88 56.5779 188 56.7379 188.08C56.9245 188.16 57.1245 188.173 57.3379 188.12C57.9779 187.987 58.6979 187.733 59.4979 187.36C60.3245 186.96 60.9779 186.533 61.4579 186.08C61.4579 185.92 61.3779 185.72 61.2179 185.48C61.0579 185.213 60.8712 184.96 60.6579 184.72C60.4445 184.453 60.2045 184.227 59.9379 184.04C59.6979 183.853 59.4712 183.773 59.2579 183.8Z" fill="#0B0F15"/>
<path d="M82.0438 176.8C82.1238 177.2 82.2038 177.653 82.2838 178.16C82.3905 178.64 82.4971 179.147 82.6038 179.68C82.7105 180.187 82.8038 180.707 82.8838 181.24C82.9638 181.773 83.0305 182.28 83.0838 182.76C83.4038 182.067 83.7505 181.333 84.1238 180.56C84.4971 179.787 84.8971 179.08 85.3238 178.44C85.7771 177.773 86.2438 177.227 86.7238 176.8C87.2305 176.373 87.7771 176.16 88.3638 176.16C89.2438 176.16 89.9771 176.48 90.5638 177.12C91.1771 177.76 91.6838 178.56 92.0838 179.52C92.5105 180.453 92.8438 181.44 93.0838 182.48C93.3238 183.52 93.5238 184.44 93.6838 185.24C93.8438 185.96 93.5238 186.493 92.7238 186.84C92.3505 187.027 92.0705 187.053 91.8838 186.92C91.6971 186.787 91.5905 186.653 91.5638 186.52C91.4305 186.2 91.2571 185.64 91.0438 184.84C90.8571 184.04 90.6305 183.227 90.3638 182.4C90.1238 181.573 89.8438 180.853 89.5238 180.24C89.2038 179.627 88.8438 179.347 88.4438 179.4C87.9638 179.427 87.5371 179.787 87.1638 180.48C86.8438 181.04 86.5105 181.667 86.1638 182.36C85.8438 183.027 85.5238 183.72 85.2038 184.44C84.8838 185.133 84.5638 185.84 84.2438 186.56C83.9505 187.253 83.6705 187.893 83.4038 188.48C83.2171 188.667 82.9771 188.8 82.6838 188.88C82.4171 188.933 82.1371 188.907 81.8438 188.8C81.5771 188.72 81.3638 188.587 81.2038 188.4C81.0438 188.213 80.9638 188.027 80.9638 187.84C80.7238 185.76 80.4705 183.867 80.2038 182.16C79.9638 180.453 79.6438 178.707 79.2438 176.92C79.0571 176.307 79.0171 175.827 79.1238 175.48C79.2571 175.107 79.6571 174.96 80.3238 175.04C81.2571 175.2 81.8305 175.787 82.0438 176.8Z" fill="#0B0F15"/>
<path d="M99.8769 178.16C99.7169 178.88 99.5569 179.68 99.3969 180.56C99.2369 181.413 99.1169 182.24 99.0369 183.04C98.9836 183.84 98.9836 184.56 99.0369 185.2C99.1169 185.84 99.2902 186.293 99.5569 186.56C100.01 186.64 100.53 186.453 101.117 186C101.704 185.52 102.277 184.92 102.837 184.2C103.397 183.48 103.904 182.707 104.357 181.88C104.81 181.027 105.13 180.28 105.317 179.64C105.424 179.32 105.517 178.987 105.597 178.64C105.677 178.293 105.717 177.933 105.717 177.56C105.717 177.347 105.85 177.147 106.117 176.96C106.41 176.747 106.65 176.627 106.837 176.6C106.97 176.573 107.117 176.6 107.277 176.68C107.464 176.76 107.624 176.88 107.757 177.04C107.917 177.173 108.05 177.347 108.157 177.56C108.29 177.747 108.357 177.947 108.357 178.16C108.41 178.96 108.49 179.84 108.597 180.8C108.704 181.76 108.824 182.72 108.957 183.68C109.117 184.64 109.277 185.573 109.437 186.48C109.597 187.387 109.757 188.2 109.917 188.92C109.997 189.213 109.917 189.547 109.677 189.92C109.437 190.293 109.17 190.52 108.877 190.6C108.637 190.653 108.384 190.627 108.117 190.52C107.877 190.413 107.69 190.2 107.557 189.88C107.424 189.507 107.29 189.053 107.157 188.52C107.05 187.96 106.944 187.387 106.837 186.8C106.757 186.187 106.677 185.613 106.597 185.08C106.517 184.52 106.464 184.053 106.437 183.68C106.037 184.4 105.557 185.133 104.997 185.88C104.464 186.6 103.877 187.267 103.237 187.88C102.624 188.467 101.97 188.933 101.277 189.28C100.61 189.6 99.9169 189.72 99.1969 189.64C98.1302 189.507 97.3169 188.507 96.7569 186.64C96.5436 185.893 96.4369 185.067 96.4369 184.16C96.4636 183.253 96.5303 182.36 96.6369 181.48C96.7702 180.573 96.9169 179.72 97.0769 178.92C97.2636 178.12 97.4236 177.467 97.5569 176.96C97.6102 176.747 97.7169 176.56 97.8769 176.4C98.0369 176.213 98.2236 176.147 98.4369 176.2C98.8369 176.28 99.1969 176.52 99.5169 176.92C99.8636 177.32 99.9836 177.733 99.8769 178.16Z" fill="#0B0F15"/>
<path d="M122.523 180.6C121.483 181.213 120.363 181.693 119.163 182.04C117.963 182.36 116.67 182.52 115.283 182.52C115.336 183.453 115.603 184.2 116.083 184.76C116.563 185.293 117.163 185.613 117.883 185.72C118.31 185.773 118.737 185.76 119.163 185.68C119.617 185.6 120.03 185.48 120.403 185.32C120.803 185.133 121.163 184.933 121.483 184.72C121.803 184.507 122.083 184.293 122.323 184.08C122.563 183.867 122.816 183.733 123.083 183.68C123.35 183.6 123.55 183.587 123.683 183.64C124.057 183.773 124.19 184.173 124.083 184.84C123.657 185.693 123.043 186.427 122.243 187.04C121.443 187.627 120.55 188 119.563 188.16C118.71 188.32 117.83 188.28 116.923 188.04C116.016 187.8 115.203 187.333 114.483 186.64C113.87 186.027 113.403 185.307 113.083 184.48C112.763 183.653 112.563 182.8 112.483 181.92C112.403 181.093 112.47 180.307 112.683 179.56C112.923 178.813 113.283 178.16 113.763 177.6C114.243 177.013 114.843 176.533 115.563 176.16C116.283 175.787 117.123 175.573 118.083 175.52C119.23 175.44 120.27 175.653 121.203 176.16C122.136 176.667 122.79 177.373 123.163 178.28C123.377 178.787 123.43 179.227 123.323 179.6C123.243 179.973 122.977 180.307 122.523 180.6ZM117.923 177.88C117.656 177.933 117.363 178.027 117.043 178.16C116.75 178.293 116.47 178.467 116.203 178.68C115.963 178.867 115.736 179.093 115.523 179.36C115.336 179.6 115.23 179.88 115.203 180.2C115.656 180.2 116.15 180.16 116.683 180.08C117.243 180 117.776 179.907 118.283 179.8C118.816 179.667 119.297 179.52 119.723 179.36C120.176 179.2 120.55 179.027 120.843 178.84C120.63 178.333 120.23 178.027 119.643 177.92C119.083 177.787 118.51 177.773 117.923 177.88Z" fill="#0B0F15"/>
<path d="M140.347 175.48C139.92 176.2 139.493 176.907 139.067 177.6C138.64 178.293 138.173 179.093 137.667 180C137.187 180.88 136.627 181.907 135.987 183.08C135.347 184.253 134.6 185.68 133.747 187.36C133.533 187.76 133.32 188.08 133.107 188.32C132.893 188.56 132.64 188.68 132.347 188.68C131.947 188.68 131.627 188.573 131.387 188.36C131.173 188.12 130.987 187.867 130.827 187.6C129.947 186.133 129.08 184.507 128.227 182.72C127.373 180.933 126.68 179.187 126.147 177.48C126.093 177.347 126.093 177.2 126.147 177.04C126.227 176.853 126.333 176.733 126.467 176.68C126.733 176.547 127.08 176.533 127.507 176.64C127.827 176.773 128.147 177.013 128.467 177.36C128.787 177.707 129.04 178.067 129.227 178.44C129.387 178.813 129.573 179.24 129.787 179.72C130 180.2 130.227 180.72 130.467 181.28C130.733 181.813 131 182.347 131.267 182.88C131.533 183.413 131.8 183.893 132.067 184.32C132.52 183.52 133 182.667 133.507 181.76C134.04 180.827 134.573 179.893 135.107 178.96C135.64 178 136.173 177.08 136.707 176.2C137.267 175.32 137.813 174.533 138.347 173.84C138.48 173.653 138.667 173.547 138.907 173.52C139.147 173.493 139.413 173.587 139.707 173.8C140.373 174.307 140.587 174.867 140.347 175.48Z" fill="#0B0F15"/>
<path d="M153.038 175.2C153.145 175.947 153.225 176.747 153.278 177.6C153.358 178.427 153.412 179.267 153.438 180.12C153.492 180.973 153.518 181.8 153.518 182.6C153.518 183.4 153.505 184.12 153.478 184.76C154.332 185.347 154.838 185.867 154.998 186.32C155.185 186.773 155.212 187.173 155.078 187.52C154.918 188 154.625 188.253 154.198 188.28C153.798 188.28 153.332 188.133 152.798 187.84C152.425 188.107 151.998 188.4 151.518 188.72C151.038 189.013 150.532 189.307 149.998 189.6C149.465 189.867 148.932 190.107 148.398 190.32C147.865 190.533 147.372 190.68 146.918 190.76C146.065 190.893 145.292 190.733 144.598 190.28C143.932 189.827 143.478 189.147 143.238 188.24C143.078 187.627 143.038 187 143.118 186.36C143.198 185.693 143.398 185.067 143.718 184.48C144.038 183.867 144.465 183.32 144.998 182.84C145.558 182.36 146.212 181.987 146.958 181.72C147.145 181.64 147.398 181.573 147.718 181.52C148.065 181.467 148.412 181.453 148.758 181.48C149.132 181.48 149.505 181.547 149.878 181.68C150.252 181.813 150.598 182.04 150.918 182.36C150.918 181.907 150.905 181.413 150.878 180.88C150.878 180.32 150.865 179.76 150.838 179.2C150.812 178.64 150.772 178.12 150.718 177.64C150.692 177.133 150.652 176.707 150.598 176.36C150.545 175.96 150.385 175.72 150.118 175.64C149.878 175.533 149.572 175.547 149.198 175.68C148.558 175.893 147.812 176.307 146.958 176.92C146.105 177.533 145.292 178.187 144.518 178.88C144.278 179.12 143.998 179.227 143.678 179.2C143.385 179.173 143.132 179.053 142.918 178.84C142.705 178.627 142.585 178.387 142.558 178.12C142.532 177.827 142.638 177.52 142.878 177.2C143.332 176.72 143.838 176.227 144.398 175.72C144.958 175.213 145.545 174.76 146.158 174.36C146.772 173.933 147.398 173.587 148.038 173.32C148.678 173.053 149.318 172.907 149.958 172.88C150.892 172.853 151.612 173.067 152.118 173.52C152.625 173.947 152.932 174.507 153.038 175.2ZM148.398 183.8C148.052 183.88 147.678 184.053 147.278 184.32C146.905 184.56 146.558 184.867 146.238 185.24C145.945 185.587 145.718 185.987 145.558 186.44C145.425 186.867 145.425 187.293 145.558 187.72C145.612 187.88 145.718 188 145.878 188.08C146.065 188.16 146.265 188.173 146.478 188.12C147.118 187.987 147.838 187.733 148.638 187.36C149.465 186.96 150.118 186.533 150.598 186.08C150.598 185.92 150.518 185.72 150.358 185.48C150.198 185.213 150.012 184.96 149.798 184.72C149.585 184.453 149.345 184.227 149.078 184.04C148.838 183.853 148.612 183.773 148.398 183.8Z" fill="#0B0F15"/>
<path d="M170.024 182.72C169.651 182.773 169.211 182.733 168.704 182.6C168.224 182.467 167.891 182.133 167.704 181.6C167.624 181.333 167.611 181.08 167.664 180.84C167.718 180.573 167.998 180.387 168.504 180.28C168.984 180.173 169.491 180.08 170.024 180C170.584 179.893 171.144 179.8 171.704 179.72L170.224 175.24C169.771 173.533 169.718 172.067 170.064 170.84C170.411 169.613 171.398 168.733 173.024 168.2C173.691 167.987 174.344 167.907 174.984 167.96C175.651 168.013 176.278 168.187 176.864 168.48C177.451 168.773 177.984 169.16 178.464 169.64C178.944 170.12 179.331 170.68 179.624 171.32C179.731 171.613 179.784 171.88 179.784 172.12C179.811 172.333 179.731 172.533 179.544 172.72C179.278 172.987 178.984 173.107 178.664 173.08C178.344 173.027 178.131 172.933 178.024 172.8C177.784 172.507 177.518 172.213 177.224 171.92C176.958 171.6 176.664 171.333 176.344 171.12C176.051 170.88 175.731 170.707 175.384 170.6C175.038 170.467 174.664 170.427 174.264 170.48C174.078 170.507 173.851 170.6 173.584 170.76C173.344 170.92 173.131 171.173 172.944 171.52C172.758 171.84 172.638 172.267 172.584 172.8C172.558 173.333 172.651 174 172.864 174.8C173.051 175.467 173.264 176.187 173.504 176.96C173.744 177.733 174.011 178.547 174.304 179.4C175.584 179.267 176.758 179.227 177.824 179.28C178.411 179.333 178.958 179.44 179.464 179.6C179.971 179.76 180.384 180 180.704 180.32C180.784 180.587 180.771 180.813 180.664 181C180.558 181.16 180.398 181.307 180.184 181.44C179.998 181.547 179.771 181.627 179.504 181.68C179.264 181.733 179.024 181.773 178.784 181.8C178.251 181.853 177.691 181.92 177.104 182C176.518 182.053 175.904 182.107 175.264 182.16C175.691 183.36 176.078 184.507 176.424 185.6C176.798 186.667 177.091 187.56 177.304 188.28C177.411 188.68 177.424 189.107 177.344 189.56C177.264 190.013 177.158 190.453 177.024 190.88C176.811 191.493 176.544 191.987 176.224 192.36C175.904 192.733 175.558 192.853 175.184 192.72C174.891 192.587 174.704 192.413 174.624 192.2C174.544 191.987 174.531 191.693 174.584 191.32C174.638 190.893 174.664 190.467 174.664 190.04C174.664 189.613 174.638 189.227 174.584 188.88C174.558 188.507 174.504 188.187 174.424 187.92C174.371 187.627 174.331 187.427 174.304 187.32L172.624 182.44C172.198 182.493 171.771 182.547 171.344 182.6C170.918 182.627 170.478 182.667 170.024 182.72Z" fill="#0B0F15"/>
<path d="M192.668 176.04C193.468 176.333 194.135 176.773 194.668 177.36C195.228 177.947 195.655 178.613 195.948 179.36C196.242 180.08 196.401 180.827 196.428 181.6C196.481 182.373 196.402 183.093 196.188 183.76C195.895 184.507 195.521 185.24 195.068 185.96C194.615 186.68 194.095 187.32 193.508 187.88C192.921 188.44 192.255 188.893 191.508 189.24C190.761 189.587 189.935 189.76 189.028 189.76C187.935 189.76 187.015 189.507 186.268 189C185.521 188.493 184.935 187.84 184.508 187.04C184.081 186.24 183.801 185.333 183.668 184.32C183.561 183.307 183.588 182.293 183.748 181.28C183.855 180.533 184.028 179.813 184.268 179.12C184.535 178.4 184.868 177.773 185.268 177.24C185.668 176.68 186.122 176.227 186.628 175.88C187.162 175.533 187.761 175.36 188.428 175.36C188.801 175.36 189.268 175.44 189.828 175.6C190.388 175.733 190.908 175.933 191.388 176.2C191.735 175.88 192.161 175.827 192.668 176.04ZM191.148 178.96C190.855 178.773 190.508 178.533 190.108 178.24C189.735 177.92 189.402 177.76 189.108 177.76C188.788 177.76 188.468 177.907 188.148 178.2C187.855 178.493 187.588 178.84 187.348 179.24C187.135 179.613 186.948 180 186.788 180.4C186.628 180.8 186.521 181.12 186.468 181.36C186.388 181.76 186.335 182.24 186.308 182.8C186.281 183.36 186.322 183.92 186.428 184.48C186.535 185.013 186.735 185.507 187.028 185.96C187.348 186.387 187.815 186.693 188.428 186.88C188.801 186.987 189.242 186.987 189.748 186.88C190.255 186.747 190.748 186.52 191.228 186.2C191.735 185.88 192.202 185.453 192.628 184.92C193.082 184.387 193.428 183.773 193.668 183.08C193.935 182.307 193.935 181.507 193.668 180.68C193.428 179.827 192.921 179.213 192.148 178.84C191.962 178.973 191.775 179.04 191.588 179.04C191.402 179.04 191.255 179.013 191.148 178.96Z" fill="#0B0F15"/>
<path d="M211.6 176.2C211.12 176.467 210.613 176.747 210.08 177.04C209.573 177.333 209.053 177.68 208.52 178.08C208.013 178.453 207.52 178.907 207.04 179.44C206.587 179.947 206.173 180.56 205.8 181.28C205.267 182.293 204.907 183.333 204.72 184.4C204.533 185.44 204.413 186.467 204.36 187.48C204.36 187.96 204.24 188.453 204 188.96C203.787 189.44 203.48 189.68 203.08 189.68C202.573 189.68 202.16 189.427 201.84 188.92C201.547 188.387 201.347 187.88 201.24 187.4C200.787 185.507 200.413 183.64 200.12 181.8C199.827 179.933 199.573 178.08 199.36 176.24C199.36 175.867 199.467 175.627 199.68 175.52C199.92 175.413 200.187 175.373 200.48 175.4C200.8 175.427 201.107 175.507 201.4 175.64C201.693 175.773 201.867 175.987 201.92 176.28C202.027 177.267 202.16 178.307 202.32 179.4C202.48 180.467 202.64 181.387 202.8 182.16C202.907 181.253 203.2 180.373 203.68 179.52C204.16 178.667 204.747 177.893 205.44 177.2C206.16 176.507 206.96 175.92 207.84 175.44C208.747 174.96 209.667 174.64 210.6 174.48C211 174.427 211.333 174.427 211.6 174.48C211.867 174.533 212.053 174.627 212.16 174.76C212.267 174.893 212.28 175.107 212.2 175.4C212.147 175.693 211.947 175.96 211.6 176.2Z" fill="#0B0F15"/>
<path d="M216.415 177.08C216.442 177.507 216.482 178.04 216.535 178.68C216.615 179.293 216.695 179.947 216.775 180.64C216.855 181.307 216.935 181.973 217.015 182.64C217.122 183.307 217.215 183.92 217.295 184.48C217.588 183.893 217.948 183.173 218.375 182.32C218.802 181.467 219.242 180.653 219.695 179.88C220.175 179.08 220.655 178.413 221.135 177.88C221.642 177.32 222.095 177.04 222.495 177.04C222.922 177.04 223.308 177.253 223.655 177.68C224.028 178.08 224.348 178.573 224.615 179.16C224.882 179.747 225.108 180.373 225.295 181.04C225.508 181.707 225.682 182.293 225.815 182.8C225.922 182.453 226.055 182.067 226.215 181.64C226.402 181.187 226.588 180.733 226.775 180.28C226.988 179.8 227.215 179.333 227.455 178.88C227.722 178.427 228.002 178.027 228.295 177.68C228.642 177.307 229.015 177.04 229.415 176.88C229.815 176.693 230.108 176.6 230.295 176.6C230.535 176.6 230.815 176.68 231.135 176.84C231.482 176.973 231.828 177.16 232.175 177.4C232.522 177.64 232.842 177.933 233.135 178.28C233.455 178.6 233.708 178.933 233.895 179.28C234.268 180 234.562 180.787 234.775 181.64C235.015 182.493 235.188 183.307 235.295 184.08C235.402 184.853 235.468 185.547 235.495 186.16C235.548 186.747 235.588 187.16 235.615 187.4C235.615 187.747 235.575 188.013 235.495 188.2C235.415 188.36 235.268 188.493 235.055 188.6C234.762 188.733 234.508 188.787 234.295 188.76C234.082 188.707 233.908 188.613 233.775 188.48C233.642 188.347 233.535 188.2 233.455 188.04C233.375 187.853 233.322 187.693 233.295 187.56C233.215 186.947 233.122 186.32 233.015 185.68C232.935 185.04 232.842 184.427 232.735 183.84C232.628 183.227 232.495 182.667 232.335 182.16C232.202 181.627 232.055 181.16 231.895 180.76C231.842 180.653 231.748 180.52 231.615 180.36C231.508 180.173 231.375 180 231.215 179.84C231.082 179.68 230.948 179.547 230.815 179.44C230.682 179.333 230.588 179.267 230.535 179.24C230.268 179.24 229.988 179.493 229.695 180C229.402 180.48 229.122 181.067 228.855 181.76C228.588 182.453 228.335 183.187 228.095 183.96C227.882 184.707 227.722 185.347 227.615 185.88C227.615 186.573 227.482 187.093 227.215 187.44C226.948 187.76 226.668 187.92 226.375 187.92C226.082 187.92 225.762 187.813 225.415 187.6C225.095 187.36 224.882 187.093 224.775 186.8C224.615 186.373 224.442 185.893 224.255 185.36C224.068 184.827 223.868 184.28 223.655 183.72C223.468 183.16 223.268 182.613 223.055 182.08C222.868 181.547 222.682 181.067 222.495 180.64C222.122 181.147 221.748 181.707 221.375 182.32C221.028 182.933 220.682 183.56 220.335 184.2C220.015 184.84 219.695 185.48 219.375 186.12C219.082 186.733 218.802 187.28 218.535 187.76C218.348 188.053 218.148 188.32 217.935 188.56C217.722 188.773 217.468 188.88 217.175 188.88C216.962 188.88 216.735 188.787 216.495 188.6C216.255 188.387 216.028 188.133 215.815 187.84C215.602 187.547 215.402 187.213 215.215 186.84C215.055 186.467 214.935 186.093 214.855 185.72C214.642 184.573 214.455 183.32 214.295 181.96C214.162 180.573 214.028 179.227 213.895 177.92C213.868 177.467 213.922 177.053 214.055 176.68C214.215 176.28 214.508 176.013 214.935 175.88C215.388 175.8 215.735 175.867 215.975 176.08C216.215 176.293 216.362 176.627 216.415 177.08Z" fill="#0B0F15"/>
<path d="M248.859 175.2C248.965 175.947 249.045 176.747 249.099 177.6C249.179 178.427 249.232 179.267 249.259 180.12C249.312 180.973 249.339 181.8 249.339 182.6C249.339 183.4 249.325 184.12 249.299 184.76C250.152 185.347 250.659 185.867 250.819 186.32C251.005 186.773 251.032 187.173 250.899 187.52C250.739 188 250.445 188.253 250.019 188.28C249.619 188.28 249.152 188.133 248.619 187.84C248.245 188.107 247.819 188.4 247.339 188.72C246.859 189.013 246.352 189.307 245.819 189.6C245.285 189.867 244.752 190.107 244.219 190.32C243.685 190.533 243.192 190.68 242.739 190.76C241.885 190.893 241.112 190.733 240.419 190.28C239.752 189.827 239.299 189.147 239.059 188.24C238.899 187.627 238.859 187 238.939 186.36C239.019 185.693 239.219 185.067 239.539 184.48C239.859 183.867 240.285 183.32 240.819 182.84C241.379 182.36 242.032 181.987 242.779 181.72C242.965 181.64 243.219 181.573 243.539 181.52C243.885 181.467 244.232 181.453 244.579 181.48C244.952 181.48 245.325 181.547 245.699 181.68C246.072 181.813 246.419 182.04 246.739 182.36C246.739 181.907 246.725 181.413 246.699 180.88C246.699 180.32 246.685 179.76 246.659 179.2C246.632 178.64 246.592 178.12 246.539 177.64C246.512 177.133 246.472 176.707 246.419 176.36C246.365 175.96 246.205 175.72 245.939 175.64C245.699 175.533 245.392 175.547 245.019 175.68C244.379 175.893 243.632 176.307 242.779 176.92C241.925 177.533 241.112 178.187 240.339 178.88C240.099 179.12 239.819 179.227 239.499 179.2C239.205 179.173 238.952 179.053 238.739 178.84C238.525 178.627 238.405 178.387 238.379 178.12C238.352 177.827 238.459 177.52 238.699 177.2C239.152 176.72 239.659 176.227 240.219 175.72C240.779 175.213 241.365 174.76 241.979 174.36C242.592 173.933 243.219 173.587 243.859 173.32C244.499 173.053 245.139 172.907 245.779 172.88C246.712 172.853 247.432 173.067 247.939 173.52C248.445 173.947 248.752 174.507 248.859 175.2ZM244.219 183.8C243.872 183.88 243.499 184.053 243.099 184.32C242.725 184.56 242.379 184.867 242.059 185.24C241.765 185.587 241.539 185.987 241.379 186.44C241.245 186.867 241.245 187.293 241.379 187.72C241.432 187.88 241.539 188 241.699 188.08C241.885 188.16 242.085 188.173 242.299 188.12C242.939 187.987 243.659 187.733 244.459 187.36C245.285 186.96 245.939 186.533 246.419 186.08C246.419 185.92 246.339 185.72 246.179 185.48C246.019 185.213 245.832 184.96 245.619 184.72C245.405 184.453 245.165 184.227 244.899 184.04C244.659 183.853 244.432 183.773 244.219 183.8Z" fill="#0B0F15"/>
<path d="M271.205 169.72C271.125 169.24 271.151 168.8 271.285 168.4C271.445 168 271.751 167.773 272.205 167.72C272.605 167.667 272.951 167.773 273.245 168.04C273.565 168.307 273.765 168.653 273.845 169.08C274.378 172.147 274.871 175.2 275.325 178.24C275.805 181.253 276.231 184.213 276.605 187.12C276.711 187.893 276.658 188.427 276.445 188.72C276.231 188.987 275.978 189.187 275.685 189.32C275.365 189.453 275.058 189.453 274.765 189.32C274.498 189.187 274.325 188.947 274.245 188.6L274.205 188.36L274.045 188.4C273.165 188.72 272.245 188.907 271.285 188.96C270.325 188.987 269.405 188.867 268.525 188.6C267.645 188.333 266.858 187.907 266.165 187.32C265.498 186.707 265.018 185.933 264.725 185C264.085 182.947 264.485 181.08 265.925 179.4C266.538 178.707 267.298 178.08 268.205 177.52C269.111 176.96 270.205 176.52 271.485 176.2L272.205 176.04L271.205 169.72ZM267.165 184C267.325 184.64 267.618 185.133 268.045 185.48C268.471 185.827 268.978 186.067 269.565 186.2C270.151 186.307 270.778 186.32 271.445 186.24C272.111 186.16 272.765 186.013 273.405 185.8L273.765 185.68L272.645 178.64L271.845 178.84C271.285 179 270.685 179.253 270.045 179.6C269.431 179.92 268.885 180.307 268.405 180.76C267.925 181.213 267.551 181.72 267.285 182.28C267.045 182.84 267.005 183.413 267.165 184Z" fill="#0B0F15"/>
<path d="M288.422 180.6C287.382 181.213 286.262 181.693 285.062 182.04C283.862 182.36 282.568 182.52 281.182 182.52C281.235 183.453 281.502 184.2 281.982 184.76C282.462 185.293 283.062 185.613 283.782 185.72C284.208 185.773 284.635 185.76 285.062 185.68C285.515 185.6 285.928 185.48 286.302 185.32C286.702 185.133 287.062 184.933 287.382 184.72C287.702 184.507 287.982 184.293 288.222 184.08C288.462 183.867 288.715 183.733 288.982 183.68C289.248 183.6 289.448 183.587 289.582 183.64C289.955 183.773 290.088 184.173 289.982 184.84C289.555 185.693 288.942 186.427 288.142 187.04C287.342 187.627 286.448 188 285.462 188.16C284.608 188.32 283.728 188.28 282.822 188.04C281.915 187.8 281.102 187.333 280.382 186.64C279.768 186.027 279.302 185.307 278.982 184.48C278.662 183.653 278.462 182.8 278.382 181.92C278.302 181.093 278.368 180.307 278.582 179.56C278.822 178.813 279.182 178.16 279.662 177.6C280.142 177.013 280.742 176.533 281.462 176.16C282.182 175.787 283.022 175.573 283.982 175.52C285.128 175.44 286.168 175.653 287.102 176.16C288.035 176.667 288.688 177.373 289.062 178.28C289.275 178.787 289.328 179.227 289.222 179.6C289.142 179.973 288.875 180.307 288.422 180.6ZM283.822 177.88C283.555 177.933 283.262 178.027 282.942 178.16C282.648 178.293 282.368 178.467 282.102 178.68C281.862 178.867 281.635 179.093 281.422 179.36C281.235 179.6 281.128 179.88 281.102 180.2C281.555 180.2 282.048 180.16 282.582 180.08C283.142 180 283.675 179.907 284.182 179.8C284.715 179.667 285.195 179.52 285.622 179.36C286.075 179.2 286.448 179.027 286.742 178.84C286.528 178.333 286.128 178.027 285.542 177.92C284.982 177.787 284.408 177.773 283.822 177.88Z" fill="#0B0F15"/>
<path d="M313.176 179.72C312.989 179.827 312.763 179.867 312.496 179.84C312.229 179.787 312.003 179.613 311.816 179.32C311.389 178.76 310.869 178.48 310.256 178.48C309.696 178.48 309.189 178.613 308.736 178.88C308.309 179.12 307.923 179.453 307.576 179.88C307.256 180.28 306.989 180.733 306.776 181.24C306.563 181.747 306.416 182.253 306.336 182.76C306.203 183.693 306.363 184.48 306.816 185.12C307.269 185.76 307.976 186.08 308.936 186.08C309.709 186.107 310.576 185.96 311.536 185.64C312.523 185.293 313.443 184.853 314.296 184.32C314.669 184.16 315.016 184.067 315.336 184.04C315.656 184.013 315.923 184.173 316.136 184.52C316.403 184.947 316.336 185.387 315.936 185.84C315.536 186.267 315.003 186.653 314.336 187C313.669 187.373 312.963 187.707 312.216 188C311.496 188.267 310.763 188.467 310.016 188.6C309.269 188.707 308.523 188.707 307.776 188.6C307.056 188.493 306.376 188.24 305.736 187.84C304.723 187.147 304.109 186.16 303.896 184.88C303.683 183.6 303.776 182.28 304.176 180.92C304.336 180.413 304.563 179.907 304.856 179.4C305.149 178.867 305.496 178.387 305.896 177.96C306.323 177.533 306.789 177.173 307.296 176.88C307.803 176.56 308.363 176.347 308.976 176.24C309.963 176.08 310.909 176.187 311.816 176.56C312.723 176.907 313.323 177.56 313.616 178.52C313.669 178.733 313.669 178.96 313.616 179.2C313.563 179.413 313.416 179.587 313.176 179.72Z" fill="#0B0F15"/>
<path d="M327.668 176.04C328.468 176.333 329.135 176.773 329.668 177.36C330.228 177.947 330.655 178.613 330.948 179.36C331.242 180.08 331.401 180.827 331.428 181.6C331.482 182.373 331.401 183.093 331.188 183.76C330.895 184.507 330.522 185.24 330.068 185.96C329.615 186.68 329.095 187.32 328.508 187.88C327.922 188.44 327.255 188.893 326.508 189.24C325.762 189.587 324.935 189.76 324.028 189.76C322.935 189.76 322.015 189.507 321.268 189C320.521 188.493 319.935 187.84 319.508 187.04C319.082 186.24 318.801 185.333 318.668 184.32C318.561 183.307 318.588 182.293 318.748 181.28C318.855 180.533 319.028 179.813 319.268 179.12C319.535 178.4 319.868 177.773 320.268 177.24C320.668 176.68 321.122 176.227 321.628 175.88C322.161 175.533 322.762 175.36 323.428 175.36C323.801 175.36 324.268 175.44 324.828 175.6C325.388 175.733 325.908 175.933 326.388 176.2C326.735 175.88 327.162 175.827 327.668 176.04ZM326.148 178.96C325.855 178.773 325.508 178.533 325.108 178.24C324.735 177.92 324.401 177.76 324.108 177.76C323.788 177.76 323.468 177.907 323.148 178.2C322.855 178.493 322.588 178.84 322.348 179.24C322.135 179.613 321.948 180 321.788 180.4C321.628 180.8 321.522 181.12 321.468 181.36C321.388 181.76 321.335 182.24 321.308 182.8C321.281 183.36 321.322 183.92 321.428 184.48C321.535 185.013 321.735 185.507 322.028 185.96C322.348 186.387 322.815 186.693 323.428 186.88C323.801 186.987 324.242 186.987 324.748 186.88C325.255 186.747 325.748 186.52 326.228 186.2C326.735 185.88 327.202 185.453 327.628 184.92C328.082 184.387 328.428 183.773 328.668 183.08C328.935 182.307 328.935 181.507 328.668 180.68C328.428 179.827 327.922 179.213 327.148 178.84C326.961 178.973 326.775 179.04 326.588 179.04C326.401 179.04 326.255 179.013 326.148 178.96Z" fill="#0B0F15"/>
<path d="M337.04 177.08C337.067 177.507 337.107 178.04 337.16 178.68C337.24 179.293 337.32 179.947 337.4 180.64C337.48 181.307 337.56 181.973 337.64 182.64C337.747 183.307 337.84 183.92 337.92 184.48C338.213 183.893 338.573 183.173 339 182.32C339.427 181.467 339.867 180.653 340.32 179.88C340.8 179.08 341.28 178.413 341.76 177.88C342.267 177.32 342.72 177.04 343.12 177.04C343.547 177.04 343.933 177.253 344.28 177.68C344.653 178.08 344.973 178.573 345.24 179.16C345.507 179.747 345.733 180.373 345.92 181.04C346.133 181.707 346.307 182.293 346.44 182.8C346.547 182.453 346.68 182.067 346.84 181.64C347.027 181.187 347.213 180.733 347.4 180.28C347.613 179.8 347.84 179.333 348.08 178.88C348.347 178.427 348.627 178.027 348.92 177.68C349.267 177.307 349.64 177.04 350.04 176.88C350.44 176.693 350.733 176.6 350.92 176.6C351.16 176.6 351.44 176.68 351.76 176.84C352.107 176.973 352.453 177.16 352.8 177.4C353.147 177.64 353.467 177.933 353.76 178.28C354.08 178.6 354.333 178.933 354.52 179.28C354.893 180 355.187 180.787 355.4 181.64C355.64 182.493 355.813 183.307 355.92 184.08C356.027 184.853 356.093 185.547 356.12 186.16C356.173 186.747 356.213 187.16 356.24 187.4C356.24 187.747 356.2 188.013 356.12 188.2C356.04 188.36 355.893 188.493 355.68 188.6C355.387 188.733 355.133 188.787 354.92 188.76C354.707 188.707 354.533 188.613 354.4 188.48C354.267 188.347 354.16 188.2 354.08 188.04C354 187.853 353.947 187.693 353.92 187.56C353.84 186.947 353.747 186.32 353.64 185.68C353.56 185.04 353.467 184.427 353.36 183.84C353.253 183.227 353.12 182.667 352.96 182.16C352.827 181.627 352.68 181.16 352.52 180.76C352.467 180.653 352.373 180.52 352.24 180.36C352.133 180.173 352 180 351.84 179.84C351.707 179.68 351.573 179.547 351.44 179.44C351.307 179.333 351.213 179.267 351.16 179.24C350.893 179.24 350.613 179.493 350.32 180C350.027 180.48 349.747 181.067 349.48 181.76C349.213 182.453 348.96 183.187 348.72 183.96C348.507 184.707 348.347 185.347 348.24 185.88C348.24 186.573 348.107 187.093 347.84 187.44C347.573 187.76 347.293 187.92 347 187.92C346.707 187.92 346.387 187.813 346.04 187.6C345.72 187.36 345.507 187.093 345.4 186.8C345.24 186.373 345.067 185.893 344.88 185.36C344.693 184.827 344.493 184.28 344.28 183.72C344.093 183.16 343.893 182.613 343.68 182.08C343.493 181.547 343.307 181.067 343.12 180.64C342.747 181.147 342.373 181.707 342 182.32C341.653 182.933 341.307 183.56 340.96 184.2C340.64 184.84 340.32 185.48 340 186.12C339.707 186.733 339.427 187.28 339.16 187.76C338.973 188.053 338.773 188.32 338.56 188.56C338.347 188.773 338.093 188.88 337.8 188.88C337.587 188.88 337.36 188.787 337.12 188.6C336.88 188.387 336.653 188.133 336.44 187.84C336.227 187.547 336.027 187.213 335.84 186.84C335.68 186.467 335.56 186.093 335.48 185.72C335.267 184.573 335.08 183.32 334.92 181.96C334.787 180.573 334.653 179.227 334.52 177.92C334.493 177.467 334.547 177.053 334.68 176.68C334.84 176.28 335.133 176.013 335.56 175.88C336.013 175.8 336.36 175.867 336.6 176.08C336.84 176.293 336.987 176.627 337.04 177.08Z" fill="#0B0F15"/>
<path d="M366.284 194.36C366.257 194.653 366.124 194.92 365.884 195.16C365.644 195.427 365.377 195.547 365.084 195.52C364.63 195.493 364.284 195.32 364.044 195C363.804 194.68 363.684 194.413 363.684 194.2C363.684 193.187 363.657 192.133 363.604 191.04C363.55 189.92 363.484 188.773 363.404 187.6C363.057 187.653 362.737 187.627 362.444 187.52C362.177 187.387 361.99 187.187 361.884 186.92C361.697 186.467 361.724 186.067 361.964 185.72C362.204 185.373 362.59 185.04 363.124 184.72C362.99 183.733 362.857 182.76 362.724 181.8C362.617 180.84 362.497 179.907 362.364 179C362.337 178.84 362.35 178.693 362.404 178.56C362.457 178.427 362.524 178.307 362.604 178.2C362.684 178.067 362.83 177.947 363.044 177.84C363.39 177.707 363.777 177.813 364.204 178.16C364.657 178.507 364.964 178.947 365.124 179.48C365.204 179.987 365.284 180.573 365.364 181.24C365.47 181.88 365.564 182.587 365.644 183.36C366.204 183.013 366.724 182.64 367.204 182.24C367.71 181.84 368.137 181.413 368.484 180.96C368.857 180.507 369.137 180.04 369.324 179.56C369.51 179.053 369.564 178.533 369.484 178C369.43 177.547 369.23 177.147 368.884 176.8C368.537 176.427 367.99 176.227 367.244 176.2C366.577 176.173 365.91 176.227 365.244 176.36C364.604 176.493 363.964 176.667 363.324 176.88C362.71 177.093 362.097 177.347 361.484 177.64C360.897 177.933 360.324 178.227 359.764 178.52C359.39 178.733 359.017 178.827 358.644 178.8C358.297 178.747 358.07 178.613 357.964 178.4C357.724 177.867 357.737 177.387 358.004 176.96C358.297 176.533 358.737 176.133 359.324 175.76C359.83 175.467 360.43 175.173 361.124 174.88C361.844 174.56 362.59 174.293 363.364 174.08C364.164 173.84 364.964 173.68 365.764 173.6C366.59 173.493 367.377 173.507 368.124 173.64C368.87 173.747 369.537 174 370.124 174.4C370.737 174.773 371.23 175.333 371.604 176.08C372.057 177.307 372.177 178.44 371.964 179.48C371.777 180.493 371.377 181.427 370.764 182.28C370.177 183.107 369.444 183.867 368.564 184.56C367.71 185.227 366.844 185.827 365.964 186.36C366.097 187.8 366.19 189.227 366.244 190.64C366.297 192.053 366.31 193.293 366.284 194.36Z" fill="#0B0F15"/>
<path d="M384.757 175.2C384.864 175.947 384.944 176.747 384.997 177.6C385.077 178.427 385.131 179.267 385.157 180.12C385.211 180.973 385.237 181.8 385.237 182.6C385.237 183.4 385.224 184.12 385.197 184.76C386.051 185.347 386.557 185.867 386.717 186.32C386.904 186.773 386.931 187.173 386.797 187.52C386.637 188 386.344 188.253 385.917 188.28C385.517 188.28 385.051 188.133 384.517 187.84C384.144 188.107 383.717 188.4 383.237 188.72C382.757 189.013 382.251 189.307 381.717 189.6C381.184 189.867 380.651 190.107 380.117 190.32C379.584 190.533 379.091 190.68 378.637 190.76C377.784 190.893 377.011 190.733 376.317 190.28C375.651 189.827 375.197 189.147 374.957 188.24C374.797 187.627 374.757 187 374.837 186.36C374.917 185.693 375.117 185.067 375.437 184.48C375.757 183.867 376.184 183.32 376.717 182.84C377.277 182.36 377.931 181.987 378.677 181.72C378.864 181.64 379.117 181.573 379.437 181.52C379.784 181.467 380.131 181.453 380.477 181.48C380.851 181.48 381.224 181.547 381.597 181.68C381.971 181.813 382.317 182.04 382.637 182.36C382.637 181.907 382.624 181.413 382.597 180.88C382.597 180.32 382.584 179.76 382.557 179.2C382.531 178.64 382.491 178.12 382.437 177.64C382.411 177.133 382.371 176.707 382.317 176.36C382.264 175.96 382.104 175.72 381.837 175.64C381.597 175.533 381.291 175.547 380.917 175.68C380.277 175.893 379.531 176.307 378.677 176.92C377.824 177.533 377.011 178.187 376.237 178.88C375.997 179.12 375.717 179.227 375.397 179.2C375.104 179.173 374.851 179.053 374.637 178.84C374.424 178.627 374.304 178.387 374.277 178.12C374.251 177.827 374.357 177.52 374.597 177.2C375.051 176.72 375.557 176.227 376.117 175.72C376.677 175.213 377.264 174.76 377.877 174.36C378.491 173.933 379.117 173.587 379.757 173.32C380.397 173.053 381.037 172.907 381.677 172.88C382.611 172.853 383.331 173.067 383.837 173.52C384.344 173.947 384.651 174.507 384.757 175.2ZM380.117 183.8C379.771 183.88 379.397 184.053 378.997 184.32C378.624 184.56 378.277 184.867 377.957 185.24C377.664 185.587 377.437 185.987 377.277 186.44C377.144 186.867 377.144 187.293 377.277 187.72C377.331 187.88 377.437 188 377.597 188.08C377.784 188.16 377.984 188.173 378.197 188.12C378.837 187.987 379.557 187.733 380.357 187.36C381.184 186.96 381.837 186.533 382.317 186.08C382.317 185.92 382.237 185.72 382.077 185.48C381.917 185.213 381.731 184.96 381.517 184.72C381.304 184.453 381.064 184.227 380.797 184.04C380.557 183.853 380.331 183.773 380.117 183.8Z" fill="#0B0F15"/>
<path d="M401.092 176.2C400.612 176.467 400.106 176.747 399.572 177.04C399.066 177.333 398.546 177.68 398.012 178.08C397.506 178.453 397.012 178.907 396.532 179.44C396.079 179.947 395.666 180.56 395.292 181.28C394.759 182.293 394.399 183.333 394.212 184.4C394.026 185.44 393.906 186.467 393.852 187.48C393.852 187.96 393.732 188.453 393.492 188.96C393.279 189.44 392.972 189.68 392.572 189.68C392.066 189.68 391.652 189.427 391.332 188.92C391.039 188.387 390.839 187.88 390.732 187.4C390.279 185.507 389.906 183.64 389.612 181.8C389.319 179.933 389.066 178.08 388.852 176.24C388.852 175.867 388.959 175.627 389.172 175.52C389.412 175.413 389.679 175.373 389.972 175.4C390.292 175.427 390.599 175.507 390.892 175.64C391.186 175.773 391.359 175.987 391.412 176.28C391.519 177.267 391.652 178.307 391.812 179.4C391.972 180.467 392.132 181.387 392.292 182.16C392.399 181.253 392.692 180.373 393.172 179.52C393.652 178.667 394.239 177.893 394.932 177.2C395.652 176.507 396.452 175.92 397.332 175.44C398.239 174.96 399.159 174.64 400.092 174.48C400.492 174.427 400.826 174.427 401.092 174.48C401.359 174.533 401.546 174.627 401.652 174.76C401.759 174.893 401.772 175.107 401.692 175.4C401.639 175.693 401.439 175.96 401.092 176.2Z" fill="#0B0F15"/>
<path d="M412.587 179.28C413.094 179.253 413.601 179.373 414.107 179.64C414.614 179.907 414.867 180.32 414.867 180.88C414.814 181.333 414.561 181.627 414.107 181.76C413.681 181.867 413.334 181.92 413.067 181.92C412.534 181.92 411.961 181.933 411.347 181.96C410.734 181.987 410.107 182.027 409.467 182.08C409.414 182.96 409.361 183.787 409.307 184.56C409.281 185.333 409.254 186.027 409.227 186.64C409.201 187.227 409.187 187.707 409.187 188.08C409.187 188.453 409.201 188.653 409.227 188.68C409.814 188.573 410.441 188.4 411.107 188.16C411.801 187.893 412.481 187.613 413.147 187.32C413.841 187 414.507 186.68 415.147 186.36C415.814 186.013 416.441 185.693 417.027 185.4C417.294 185.267 417.534 185.227 417.747 185.28C417.987 185.333 418.134 185.453 418.187 185.64C418.241 185.933 418.201 186.293 418.067 186.72C417.934 187.147 417.694 187.533 417.347 187.88C416.947 188.2 416.414 188.573 415.747 189C415.107 189.4 414.414 189.787 413.667 190.16C412.921 190.533 412.161 190.867 411.387 191.16C410.641 191.427 409.974 191.587 409.387 191.64C408.507 191.72 407.841 191.48 407.387 190.92C406.934 190.36 406.681 189.653 406.627 188.8C406.574 187.947 406.561 186.96 406.587 185.84C406.641 184.72 406.694 183.533 406.747 182.28C406.241 182.333 405.747 182.387 405.267 182.44C404.814 182.467 404.374 182.507 403.947 182.56C403.601 182.56 403.214 182.48 402.787 182.32C402.387 182.16 402.187 181.853 402.187 181.4C402.187 181.24 402.254 181.027 402.387 180.76C402.521 180.493 402.814 180.293 403.267 180.16C404.361 179.973 405.574 179.813 406.907 179.68C406.987 178.427 407.081 177.213 407.187 176.04C407.294 174.867 407.387 173.8 407.467 172.84C407.494 172.52 407.587 172.24 407.747 172C407.907 171.76 408.081 171.64 408.267 171.64C408.721 171.613 409.147 171.733 409.547 172C409.974 172.24 410.187 172.52 410.187 172.84C410.081 173.747 409.974 174.773 409.867 175.92C409.787 177.067 409.707 178.24 409.627 179.44C410.161 179.387 410.667 179.36 411.147 179.36C411.654 179.333 412.134 179.307 412.587 179.28Z" fill="#0B0F15"/>
<path d="M426.555 173.68C426.502 173.947 426.315 174.093 425.995 174.12C425.675 174.147 425.409 174.16 425.195 174.16C424.529 174.187 423.835 174.253 423.115 174.36C422.422 174.467 421.689 174.627 420.915 174.84C420.595 174.947 420.249 174.907 419.875 174.72C419.502 174.533 419.275 174.16 419.195 173.6C419.195 173.387 419.275 173.213 419.435 173.08C419.595 172.947 419.782 172.827 419.995 172.72C420.342 172.56 420.755 172.427 421.235 172.32C421.715 172.187 422.195 172.093 422.675 172.04C423.182 171.987 423.662 171.973 424.115 172C424.569 172 424.942 172.04 425.235 172.12C425.662 172.253 425.995 172.453 426.235 172.72C426.502 172.987 426.609 173.307 426.555 173.68ZM425.635 187C425.822 187.427 425.915 187.893 425.915 188.4C425.942 188.88 425.809 189.213 425.515 189.4C425.142 189.64 424.742 189.627 424.315 189.36C423.889 189.093 423.569 188.733 423.355 188.28C423.062 187.72 422.835 187.04 422.675 186.24C422.515 185.413 422.395 184.6 422.315 183.8C422.235 183 422.182 182.253 422.155 181.56C422.155 180.867 422.155 180.347 422.155 180C422.182 179.627 422.289 179.28 422.475 178.96C422.662 178.64 422.902 178.453 423.195 178.4C423.675 178.427 424.062 178.653 424.355 179.08C424.649 179.48 424.782 179.987 424.755 180.6C424.755 181.08 424.769 181.613 424.795 182.2C424.822 182.787 424.875 183.373 424.955 183.96C425.035 184.547 425.129 185.12 425.235 185.68C425.342 186.213 425.475 186.653 425.635 187Z" fill="#0B0F15"/>
<path d="M441.483 176.2C441.003 176.467 440.496 176.747 439.963 177.04C439.456 177.333 438.936 177.68 438.403 178.08C437.896 178.453 437.403 178.907 436.923 179.44C436.47 179.947 436.056 180.56 435.683 181.28C435.15 182.293 434.79 183.333 434.603 184.4C434.416 185.44 434.296 186.467 434.243 187.48C434.243 187.96 434.123 188.453 433.883 188.96C433.669 189.44 433.363 189.68 432.963 189.68C432.456 189.68 432.043 189.427 431.723 188.92C431.43 188.387 431.23 187.88 431.123 187.4C430.67 185.507 430.296 183.64 430.003 181.8C429.71 179.933 429.456 178.08 429.243 176.24C429.243 175.867 429.35 175.627 429.563 175.52C429.803 175.413 430.07 175.373 430.363 175.4C430.683 175.427 430.99 175.507 431.283 175.64C431.576 175.773 431.75 175.987 431.803 176.28C431.91 177.267 432.043 178.307 432.203 179.4C432.363 180.467 432.523 181.387 432.683 182.16C432.79 181.253 433.083 180.373 433.563 179.52C434.043 178.667 434.63 177.893 435.323 177.2C436.043 176.507 436.843 175.92 437.723 175.44C438.63 174.96 439.55 174.64 440.483 174.48C440.883 174.427 441.216 174.427 441.483 174.48C441.75 174.533 441.936 174.627 442.043 174.76C442.15 174.893 442.163 175.107 442.083 175.4C442.03 175.693 441.83 175.96 441.483 176.2Z" fill="#0B0F15"/>
</g>
<defs>
<linearGradient id="paint0_linear_159_621" x1="17.0784" y1="91.0966" x2="149.969" y2="125.931" gradientUnits="userSpaceOnUse">
<stop offset="0.07" stop-color="#E5454D"/>
<stop offset="0.93" stop-color="#CD376A"/>
</linearGradient>
<clipPath id="clip0_159_621">
<rect width="469" height="208" fill="white"/>
</clipPath>
</defs>
</svg>
