<svg width="469" height="169" viewBox="0 0 469 169" fill="none" xmlns="http://www.w3.org/2000/svg">
<g clip-path="url(#clip0_159_396)">
<path d="M310.342 117.294H339.019V100.968H310.342V86.9067H340.62V70.5945H310.342H308.186H291.012V148.955H308.186H310.342H341.271V132.643H310.342V117.294Z" fill="#FCFBFA"/>
<path d="M469 70.5944H406.071V80.0996C403.141 76.886 399.587 74.269 395.436 72.2486C389.888 69.5638 383.526 68.2214 376.377 68.2214C369.649 68.2214 363.775 69.3604 358.77 71.652C353.764 73.9436 349.586 77.0216 346.263 80.8861C342.939 84.7506 340.457 89.0625 338.856 93.822C337.242 98.5814 336.442 103.436 336.442 108.371V110.731C336.442 115.165 337.229 119.748 338.802 124.467C340.376 129.185 342.804 133.579 346.1 137.619C349.396 141.66 353.574 144.915 358.661 147.396C363.748 149.864 369.825 151.098 376.92 151.098C384.503 151.098 391.096 149.647 396.684 146.759C402.273 143.857 406.709 139.979 410.005 135.111C413.302 130.243 415.269 124.873 415.906 119.002H395.938C395.219 123.084 393.13 126.338 389.658 128.779C386.185 131.219 381.939 132.426 376.934 132.426C373.705 132.426 370.843 131.911 368.347 130.867C365.837 129.836 363.708 128.304 361.958 126.311C360.208 124.304 358.878 121.904 357.983 119.124C357.088 116.331 356.64 113.185 356.64 109.673C356.64 106.161 357.088 103.015 357.983 100.222C358.878 97.4288 360.167 95.0559 361.849 93.0897C363.531 91.1236 365.607 89.6049 368.076 88.5337C370.544 87.4625 373.312 86.9201 376.391 86.9201C379.687 86.9201 382.617 87.4761 385.195 88.588C387.772 89.6998 389.888 91.2592 391.53 93.2525C393.171 95.2457 394.256 97.6187 394.758 100.331H414.74C414.333 95.8288 413.193 91.7202 411.389 87.9913H427.572V148.969H447.54V87.9913H469.014V70.5944H469Z" fill="#FCFBFA"/>
<path d="M264.832 70.4861V132.969H263.217L237.132 70.4861H223.038H204.372H204.345V132.969H202.731L176.631 70.4861H144.211V148.847H162.347V86.3644H163.961L190.061 148.847H204.372H222.848H223.038V86.3644H224.448L250.548 148.847H283.524V70.4861H264.832Z" fill="#FCFBFA"/>
<path d="M102.294 107.07C100.504 107.07 99.0524 108.52 99.0524 110.31C99.0524 112.1 100.504 113.551 102.294 113.551C104.085 113.551 105.536 112.1 105.536 110.31C105.536 108.52 104.085 107.07 102.294 107.07Z" fill="#FCFBFA"/>
<path d="M111.057 107.07C109.267 107.07 107.815 108.52 107.815 110.31C107.815 112.1 109.267 113.551 111.057 113.551C112.848 113.551 114.3 112.1 114.3 110.31C114.3 108.52 112.848 107.07 111.057 107.07Z" fill="#FCFBFA"/>
<path d="M118.98 107.07C117.189 107.07 115.738 108.52 115.738 110.31C115.738 112.1 117.189 113.551 118.98 113.551C120.77 113.551 122.222 112.1 122.222 110.31C122.222 108.52 120.77 107.07 118.98 107.07Z" fill="#FCFBFA"/>
<path d="M111.058 70.3638C88.9871 70.3638 71.0947 88.249 71.0947 110.31C71.0947 110.378 71.0947 110.432 71.0947 110.5C70.3893 119.287 63.6068 126.338 54.9387 127.423C53.2024 128.914 51.0726 129.999 48.6716 130.46C46.7589 130.826 44.8598 130.758 43.0828 130.352C44.5343 129.348 45.7415 128.06 46.6911 126.609C39.3524 124.128 34.0484 117.199 34.0484 109.022C34.0484 98.7712 42.3638 90.4592 52.6191 90.4592C59.5101 90.4592 65.5195 94.2287 68.7208 99.8017C70.6335 92.1948 74.5674 85.3608 79.912 79.8962C72.7632 73.1978 63.1863 69.0757 52.6191 69.0757C30.5486 69.0757 12.6562 86.9608 12.6562 109.022C12.6562 131.084 30.5486 148.969 52.6191 148.969C63.851 148.969 73.9705 144.304 81.2279 136.847C88.553 145.064 99.1881 150.271 111.058 150.271C133.128 150.271 151.02 132.385 151.02 110.324C151.02 88.2625 133.128 70.3774 111.058 70.3774V70.3638ZM116.999 127.897C117.949 129.348 119.156 130.636 120.607 131.64C118.817 132.06 116.931 132.114 115.019 131.748C112.604 131.287 110.488 130.202 108.751 128.711C99.69 127.585 92.6497 119.924 92.514 110.595C92.514 110.419 92.5547 110.243 92.5547 110.053H92.514C92.6497 99.9102 100.897 91.7338 111.071 91.7338C121.245 91.7338 129.642 100.046 129.642 110.297C129.642 118.473 124.351 125.402 116.999 127.884V127.897Z" fill="#FCFBFA"/>
<path d="M40.6139 109.009C40.6139 110.799 42.0654 112.25 43.856 112.25C45.6465 112.25 47.098 110.799 47.098 109.009C47.098 107.219 45.6465 105.768 43.856 105.768C42.0654 105.768 40.6139 107.219 40.6139 109.009Z" fill="#FCFBFA"/>
<path d="M49.377 109.009C49.377 110.799 50.8284 112.25 52.619 112.25C54.4096 112.25 55.8611 110.799 55.8611 109.009C55.8611 107.219 54.4096 105.768 52.619 105.768C50.8284 105.768 49.377 107.219 49.377 109.009Z" fill="#FCFBFA"/>
<path d="M57.2991 109.009C57.2991 110.799 58.7505 112.25 60.5411 112.25C62.3317 112.25 63.7832 110.799 63.7832 109.009C63.7832 107.219 62.3317 105.768 60.5411 105.768C58.7505 105.768 57.2991 107.219 57.2991 109.009Z" fill="#FCFBFA"/>
<path d="M102.294 105.47C100.504 105.47 99.0524 106.921 99.0524 108.71C99.0524 110.5 100.504 111.951 102.294 111.951C104.085 111.951 105.536 110.5 105.536 108.71C105.536 106.921 104.085 105.47 102.294 105.47Z" fill="#E13547"/>
<path d="M111.057 105.47C109.267 105.47 107.815 106.921 107.815 108.71C107.815 110.5 109.267 111.951 111.057 111.951C112.848 111.951 114.3 110.5 114.3 108.71C114.3 106.921 112.848 105.47 111.057 105.47Z" fill="#E13547"/>
<path d="M118.979 105.47C117.189 105.47 115.737 106.921 115.737 108.71C115.737 110.5 117.189 111.951 118.979 111.951C120.77 111.951 122.222 110.5 122.222 108.71C122.222 106.921 120.77 105.47 118.979 105.47Z" fill="#E13547"/>
<path d="M115.602 69.008C91.4831 66.3503 71.0811 85.1439 71.0811 108.71C71.0811 108.778 71.0811 108.833 71.0811 108.9C70.3758 117.687 63.5932 124.738 54.9251 125.823C53.1888 127.314 51.059 128.399 48.658 128.86C46.7453 129.226 44.8462 129.158 43.0692 128.752C44.5207 127.748 45.728 126.46 46.6775 125.009C38.7826 122.351 33.2616 114.555 34.1298 105.578C34.9979 96.6018 42.4588 89.4694 51.371 88.8999C58.7776 88.4118 65.316 92.2898 68.7208 98.2018C70.6335 90.5949 74.5674 83.7608 79.912 78.2963C71.5017 70.4182 59.7 66.0927 46.9081 67.8825C29.0971 70.3639 14.908 84.9812 12.914 102.853C10.2281 126.975 29.0429 147.396 52.6326 147.396C63.8645 147.396 73.9841 142.732 81.2414 135.274C88.5666 143.491 99.2016 148.698 111.071 148.698C134.647 148.698 153.448 128.304 150.79 104.195C148.769 85.8897 133.928 71.069 115.629 69.0487L115.602 69.008ZM116.999 126.297C117.949 127.748 119.156 129.036 120.607 130.04C118.817 130.46 116.931 130.514 115.019 130.148C112.604 129.687 110.488 128.602 108.751 127.111C99.6899 125.985 92.6497 118.324 92.514 108.995C92.514 108.819 92.5547 108.643 92.5547 108.453H92.514C92.6497 98.1882 101.101 89.944 111.437 90.1338C120.716 90.3101 128.706 97.6865 129.574 106.921C130.401 115.856 124.894 123.626 117.013 126.284L116.999 126.297Z" fill="url(#paint0_linear_159_396)"/>
<path d="M40.6139 107.409C40.6139 109.199 42.0654 110.649 43.856 110.649C45.6465 110.649 47.098 109.199 47.098 107.409C47.098 105.619 45.6465 104.168 43.856 104.168C42.0654 104.168 40.6139 105.619 40.6139 107.409Z" fill="#E13547"/>
<path d="M49.377 107.409C49.377 109.199 50.8284 110.649 52.619 110.649C54.4096 110.649 55.8611 109.199 55.8611 107.409C55.8611 105.619 54.4096 104.168 52.619 104.168C50.8284 104.168 49.377 105.619 49.377 107.409Z" fill="#E13547"/>
<path d="M57.299 107.409C57.299 109.199 58.7504 110.649 60.541 110.649C62.3316 110.649 63.7831 109.199 63.7831 107.409C63.7831 105.619 62.3316 104.168 60.541 104.168C58.7504 104.168 57.299 105.619 57.299 107.409Z" fill="#E13547"/>
<path d="M31.5146 24.4807C31.1824 26.8061 30.8835 29.3972 30.6177 32.254C30.352 35.0444 30.0862 37.9012 29.8205 40.8245C29.5547 43.6813 29.289 46.4717 29.0232 49.1957C28.8239 51.9197 28.6578 54.3114 28.5249 56.371C30.7838 55.9724 33.2752 55.5073 35.9992 54.9758C38.7896 54.4443 41.6132 53.9128 44.4701 53.3813C47.3269 52.7834 50.1173 52.2851 52.8413 51.8864C55.6317 51.4214 58.1563 51.0892 60.4152 50.8899C60.6145 50.8899 60.8471 50.9563 61.1128 51.0892C61.6443 51.3549 61.9101 51.7868 61.9101 52.3847C61.9101 53.2484 61.744 53.9128 61.4118 54.3779C61.0796 54.7765 60.681 55.1087 60.2159 55.3744C59.7508 55.5738 59.2525 55.7731 58.721 55.9724C58.256 56.1717 57.8241 56.4707 57.4255 56.8693C55.3659 57.4008 53.107 57.9655 50.6488 58.5635C48.1906 59.1614 45.6659 59.7594 43.0749 60.3573C40.4838 60.9552 37.8927 61.5532 35.3016 62.1511C32.7105 62.7491 30.2855 63.347 28.0266 63.945C25.9671 64.4765 24.4058 64.1111 23.3427 62.8487C22.2797 61.5864 21.8479 59.5268 22.0472 56.67C22.3794 51.2885 22.778 45.907 23.2431 40.5255C23.7082 35.0776 24.2729 29.6629 24.9373 24.2814C25.0701 23.152 25.4355 22.2218 26.0335 21.491C26.6979 20.7602 27.4951 20.3283 28.4253 20.1955C29.9533 19.9962 30.8503 20.3948 31.116 21.3914C31.4482 22.3215 31.5811 23.3513 31.5146 24.4807Z" fill="#FCFBFA"/>
<path d="M88.865 39.8279C89.1307 40.4923 88.865 41.1567 88.0677 41.8211C87.2705 42.419 86.0081 42.8176 84.2808 43.017C81.291 43.4156 78.2349 43.8474 75.1123 44.3125C71.9897 44.7111 68.8007 45.143 65.5452 45.608C65.4123 48.9964 65.4123 52.3847 65.5452 55.7731C67.0733 55.7731 68.9003 55.6402 71.0264 55.3744C73.2188 55.0423 75.4445 54.6436 77.7034 54.1786C79.9623 53.7135 82.1215 53.2484 84.1811 52.7834C86.3071 52.2519 88.1009 51.82 89.5626 51.4878C90.2934 51.2885 91.0574 51.1556 91.8547 51.0892C92.652 50.9563 93.3496 50.9563 93.9475 51.0892C94.6119 51.1556 95.1434 51.3882 95.542 51.7868C95.9406 52.1854 96.14 52.7501 96.14 53.481C96.14 53.6803 95.9074 53.9792 95.4424 54.3779C94.9773 54.7765 94.3793 55.2084 93.6485 55.6734C92.9841 56.072 92.2533 56.4707 91.4561 56.8693C90.7253 57.2015 90.0609 57.4672 89.4629 57.6666C85.3438 58.9953 81.291 60.158 77.3048 61.1546C73.3185 62.0847 69.4318 62.583 65.6449 62.6494C63.4524 62.7159 61.7915 62.1511 60.662 60.9552C59.5326 59.6929 58.9346 57.8991 58.8682 55.5738C58.7353 52.3183 58.7353 49.0296 58.8682 45.7077C57.7387 45.0433 57.174 44.1132 57.174 42.9173C57.3069 41.655 57.9048 40.7913 58.9678 40.3262C59.1007 38.3995 59.2004 36.4728 59.2668 34.5461C59.3333 32.553 59.4329 30.593 59.5658 28.6663C58.835 28.5335 58.1706 28.168 57.5726 27.5701C57.0411 26.9722 56.7754 26.3078 56.7754 25.577C56.7754 24.979 56.9083 24.4475 57.174 23.9824C57.4398 23.4509 57.9381 23.0523 58.6689 22.7866C59.8648 22.5208 61.3264 22.2218 63.0538 21.8896C64.7812 21.5575 66.5418 21.2585 68.3356 20.9927C70.1959 20.727 71.9565 20.4944 73.6174 20.2951C75.3448 20.0958 76.8065 19.9629 78.0024 19.8965C79.3976 19.7636 80.7263 19.8965 81.9886 20.2951C83.3174 20.6938 84.5465 21.4578 85.676 22.5872C85.9417 23.5174 85.7424 24.215 85.078 24.68C84.4801 25.1451 83.6828 25.4441 82.6862 25.577C81.6897 25.7098 80.4938 25.8759 79.0986 26.0752C77.7034 26.2081 76.2417 26.3742 74.7137 26.5735C73.252 26.7728 71.7572 26.9722 70.2291 27.1715C68.7675 27.3043 67.3723 27.4704 66.0435 27.6698C66.0435 27.8026 66.0435 27.9687 66.0435 28.168C66.1099 28.3009 66.1432 28.4338 66.1432 28.5667C66.0103 30.2941 65.9106 32.0215 65.8442 33.7488C65.7778 35.4762 65.7113 37.2036 65.6449 38.931C68.4353 38.4659 71.2921 38.0673 74.2154 37.7351C77.1387 37.3365 79.464 37.0708 81.1914 36.9379C82.5866 36.805 83.9486 36.9711 85.2773 37.4362C86.6061 37.9012 87.802 38.6985 88.865 39.8279Z" fill="#FCFBFA"/>
<path d="M99.0456 64.6426C98.7134 65.772 98.2815 66.8018 97.75 67.7319C97.2185 68.5956 96.6538 69.0939 96.0559 69.2268C94.7935 69.559 93.8302 69.3597 93.1658 68.6288C92.5014 67.898 92.2357 66.9679 92.3686 65.8384C92.9001 61.8522 93.7638 57.6666 94.9596 53.2816C96.1555 48.8303 97.5507 44.4122 99.1452 40.0272C100.74 35.5759 102.467 31.2906 104.327 27.1715C106.254 22.9859 108.214 19.1989 110.207 15.8106C110.539 15.2791 110.905 14.9801 111.303 14.9136C111.768 14.7808 112.167 14.7808 112.499 14.9136C112.831 14.6479 113.23 14.4154 113.695 14.216C114.16 14.0167 114.625 13.9171 115.09 13.9171C115.29 13.9171 115.489 13.9503 115.688 14.0167C115.954 14.0832 116.22 14.2825 116.486 14.6147C116.751 14.9469 117.05 15.4451 117.382 16.1095C117.781 16.7075 118.246 17.6044 118.778 18.8003C119.708 22.1886 120.771 25.6766 121.967 29.2643C123.229 32.8519 124.525 36.4396 125.853 40.0272C126.053 39.9608 126.219 39.9276 126.352 39.9276C126.551 39.8612 126.75 39.7947 126.95 39.7283C127.68 39.6618 128.511 39.6951 129.441 39.8279C130.371 39.9608 131.002 40.4259 131.335 41.2231C131.733 42.2197 131.667 43.0834 131.135 43.8142C130.604 44.545 129.64 45.2759 128.245 46.0067C129.109 48.1327 129.973 50.2255 130.836 52.2851C131.7 54.2782 132.597 56.2381 133.527 58.1648C133.593 58.497 133.693 59.0285 133.826 59.7594C133.959 60.4237 134.025 61.1213 134.025 61.8522C134.092 62.5165 134.058 63.1477 133.926 63.7456C133.793 64.3436 133.527 64.7422 133.128 64.9415C132.663 65.1408 132.165 65.1076 131.633 64.8419C131.168 64.5761 130.703 64.2439 130.238 63.8453C129.773 63.3802 129.341 62.9152 128.943 62.4501C128.611 61.9186 128.345 61.4535 128.145 61.0549C127.016 58.8624 125.92 56.67 124.857 54.4775C123.86 52.2186 122.897 49.9597 121.967 47.7008C119.176 48.2324 116.12 48.6974 112.798 49.096C109.543 49.4947 106.321 49.7604 103.132 49.8933C102.401 52.4179 101.67 54.9094 100.939 57.3676C100.275 59.7594 99.6435 62.1843 99.0456 64.6426ZM113.197 22.7866C110.141 29.6297 107.483 36.4728 105.224 43.3159C109.676 43.1831 114.426 42.6183 119.475 41.6218C117.084 35.5759 114.991 29.2975 113.197 22.7866Z" fill="#FCFBFA"/>
<path d="M141.496 62.9484C141.296 60.4902 141.13 57.6998 140.997 54.5772C140.931 51.4546 140.898 48.2656 140.898 45.0101C140.898 41.6882 140.898 38.4327 140.898 35.2437C140.964 32.0547 141.064 29.1646 141.197 26.5735C141.197 25.9091 141.496 25.4109 142.094 25.0787C142.758 24.68 143.289 24.514 143.688 24.5804C144.884 24.7133 145.681 25.1451 146.08 25.8759C146.545 26.5403 146.844 27.5037 146.977 28.766C146.91 30.892 146.844 33.018 146.777 35.144C146.777 37.2701 146.811 39.3961 146.877 41.5221C149.867 40.9906 152.358 39.8944 154.351 38.2334C156.411 36.5725 157.873 34.679 158.736 32.553C159.068 31.7557 159.301 30.7923 159.434 29.6629C159.633 28.5335 159.666 27.404 159.534 26.2746C159.401 25.0787 159.069 23.9824 158.537 22.9859C158.072 21.9229 157.341 21.0924 156.345 20.4944C154.883 19.6307 153.288 19.1657 151.561 19.0992C149.834 19.0328 148.04 19.2986 146.18 19.8965C144.386 20.428 142.592 21.2917 140.798 22.4876C139.071 23.6835 137.443 25.1119 135.915 26.7728C136.114 27.7694 135.981 28.6663 135.516 29.4636C135.051 30.1944 134.387 30.7259 133.523 31.0581C132.992 31.191 132.36 30.9252 131.63 30.2608C130.899 29.53 130.533 28.7992 130.533 28.0684C130.533 25.4109 131.264 23.1187 132.726 21.192C134.254 19.1989 136.147 17.5379 138.406 16.2092C140.665 14.8804 143.09 13.8839 145.681 13.2195C148.272 12.5551 150.664 12.2229 152.857 12.2229C156.112 12.2229 158.836 13.1863 161.028 15.113C163.221 16.9732 164.716 19.3318 165.513 22.1886C166.908 27.1715 166.543 31.656 164.417 35.6423C162.357 39.6286 158.969 43.0834 154.252 46.0067C157.707 48.1327 160.929 50.1591 163.918 52.0858C166.975 54.0125 170.031 56.1053 173.087 58.3642C173.486 58.7628 173.917 59.3607 174.382 60.158C174.914 60.8888 174.848 62.0183 174.183 63.5463C173.785 64.4765 173.087 65.008 172.09 65.1408C171.16 65.2073 170.23 64.9083 169.3 64.2439C167.838 63.048 166.177 61.8189 164.317 60.5566C162.523 59.2279 160.63 57.9323 158.637 56.67C156.644 55.3412 154.65 54.0789 152.657 52.883C150.664 51.6207 148.771 50.458 146.977 49.395C147.043 52.0525 147.076 54.7101 147.076 57.3676C147.143 59.9587 147.243 62.5165 147.375 65.0412C147.375 65.9713 147.11 66.6357 146.578 67.0343C146.047 67.3665 145.382 67.5326 144.585 67.5326C144.186 67.4662 143.821 67.2669 143.489 66.9347C143.157 66.536 142.824 66.1042 142.492 65.6391C142.226 65.1076 141.994 64.6093 141.795 64.1443C141.595 63.6128 141.496 63.2141 141.496 62.9484Z" fill="#FCFBFA"/>
<path d="M211.479 23.7831C211.014 29.4304 210.449 35.2105 209.785 41.1235C209.187 46.97 208.356 52.4844 207.293 57.6666C207.028 58.9289 206.662 59.8258 206.197 60.3573C205.732 60.8888 205.068 61.2542 204.204 61.4535C203.473 61.5864 202.444 61.3539 201.115 60.7559C199.852 60.158 198.789 59.2943 197.926 58.1648C196.796 56.6368 195.567 54.9758 194.238 53.182C192.976 51.3217 191.581 49.4615 190.053 47.6012C188.591 45.6745 187.03 43.781 185.369 41.9207C183.774 40.0605 182.08 38.3331 180.286 36.7386C180.087 41.1235 179.921 45.4752 179.788 49.7936C179.655 54.0457 179.655 58.3309 179.788 62.6494C179.788 63.2474 179.257 63.5463 178.194 63.5463C176.931 63.5463 175.901 62.9152 175.104 61.6528C174.307 60.3241 173.842 58.9953 173.709 57.6666C173.51 56.3378 173.41 54.4443 173.41 51.9861C173.41 49.4615 173.443 46.8372 173.51 44.1132C173.643 41.3892 173.775 38.7649 173.908 36.2403C174.041 33.7156 174.174 31.7225 174.307 30.2608C174.44 28.6663 174.805 27.5037 175.403 26.7728C176.068 26.042 176.699 25.7098 177.297 25.7763C178.625 25.9092 179.489 26.3078 179.888 26.9722C180.353 27.5701 180.619 28.3341 180.685 29.2643C183.077 30.9917 185.269 32.8519 187.262 34.8451C189.322 36.8382 191.182 38.8646 192.843 40.9242C194.571 42.9837 196.132 45.0433 197.527 47.1029C198.989 49.096 200.351 50.9231 201.613 52.584C202.41 48.5978 203.041 44.1464 203.507 39.23C204.038 34.3136 204.57 29.1646 205.101 23.7831C205.035 23.1187 205.433 22.4876 206.297 21.8896C207.161 21.2253 207.958 20.9263 208.689 20.9927C210.549 21.1256 211.479 22.0557 211.479 23.7831Z" fill="#FCFBFA"/>
</g>
<defs>
<linearGradient id="paint0_linear_159_396" x1="17.0784" y1="91.0966" x2="149.969" y2="125.931" gradientUnits="userSpaceOnUse">
<stop offset="0.07" stop-color="#E5454D"/>
<stop offset="0.93" stop-color="#CD376A"/>
</linearGradient>
<clipPath id="clip0_159_396">
<rect width="469" height="169" fill="white"/>
</clipPath>
</defs>
</svg>
